<svg viewBox="0 0 392.9 260.77"><g style="isolation:isolate"><path d="M68.54,230.79c-3,3.9-20.72,17.26-44.7,20.85a64.14,64.14,0,0,1-12.17,1,45.29,45.29,0,0,1-2.41,4.45c-1.7,2.18-3.24,3.67-4.45,3.68-3,.08-5.57-4.9-4.61-10.93.24-2.66,23.56-44.62,27.85-51.78a121.21,121.21,0,0,0,8.37-15.83c.67-1.33,1.8-2.35,6.21-.93,1.7.62,3.27,2.37,2.58,3.36-.31.28-1.76,3-4,7,17.15-13.4,32.12-11,35.69-3.36,3.17,6.63-5.6,18.74-29.31,30.13,6-1.6,10.38-2.64,12-2.52C74.36,216.28,73.52,223.92,68.54,230.79Zm-11-9.22c-3.34-1.94-21.78,2.13-36.38,8.6v.09c-1.89,2.62-6.65,15.17-8.58,20.09C43.83,247.78,62.77,224.63,57.56,221.57ZM23,226.12l.09-.27C35,219.34,70.74,201,64.75,192c-5.33-7.47-25,6.56-29.73,10.52C30.77,210.34,26.05,219.14,23,226.12Z"/><path d="M179.18,248.48c-1.71,2.18-3.24,3.67-4.46,3.68-3,.08-5.56-4.9-4.6-10.93.24-2.66,23.55-44.63,27.85-51.78a121.21,121.21,0,0,0,8.37-15.83c.66-1.33,1.8-2.36,6.21-.93,1.7.62,3.27,2.37,2.58,3.36-.31.28-1.76,2.95-4,7,17.15-13.4,32.12-11,35.69-3.36a10.54,10.54,0,0,1,.24,11.77c-4,6.16-46.08,29.75-46.08,29.75s34.73,26,34.09,35c-.13,1.86-5.09,0-8.09-4-8.74-11.66-34.26-29.15-33.89-28.9-.75,1.68-13.15,23.87-13.93,25.21m13.69-31,.09-.27c12-6.51,47.7-24.84,41.71-33.87-5.33-7.47-25,6.56-29.74,10.52C200.69,201.72,196,210.53,192.87,217.51Z"/><path d="M95.38,217.19c-13.65,24.42-14.18,30.33-15.17,33.22s-3.61,4.63-6.1,2.37-2-7.15,1-13.17c2.62-6,15.41-35.8,23.62-48,8.31-12.34,12.53-17.61,15.18-17.49s8.58,2.52,8.66,3.54c.41,1-1,1-1.83,2C117.47,183.57,108.81,192.7,95.38,217.19Z"/><path d="M117.14,216.4c-2.77,3.57-9.38,15.15-6.6,13.2s15.74-11.79,18.82-17.46c1.22-2.37,1.81-2.32,3.82-2.22s9.17,1.87,7.48,4.18-8.81,13.48-9.85,16.64c-1.38,3.37.18,5.41-1.72,6.56s-3.46.74-6.07-1.13-1.9-6.35-1.2-9.4c-6.12,4.31-9.3,8.64-15.51,10.32s-8.33-4.56-8.81-6.24,6.8-13.58,8.35-16.24,2-3.15,4.78-3.47a18.73,18.73,0,0,1,6.83.34C118.54,211.85,120,212.9,117.14,216.4Z"/><path d="M186.68,221.28c-3.6,2.13-24.59,12.64-33.19,14.9-8.84,2.27-12.87-2.81-12.17-6.73s5.05-12.3,11.4-17.75c6-5.13,11.17-6.23,13.81-6.16,3.51,0,8.71,4,9.64,7.9.68,3.91-6.67,7.7-11.51,9.94s-8.77,4.87-12.33,1.11c-.91,1.13-2.77,4.57,3.68,3.75s23.1-3.55,29.14-10.51C191.4,210.52,190.15,219.15,186.68,221.28ZM157.55,219c2.2-.66,7-2.8,7.49-5.25A16.78,16.78,0,0,0,157.55,219Z"/><path d="M271.5,219.12c-4.62,3.13-29.95,17.8-35.26,18.77-5.32,1.19-10.78-2.59-10.08-8.74.7-5.82,7-17.26,10.78-20.71s4.75-3.56,5.87-3.56c2.66,0,8.12,4.64,7.7,6.37-.14,1.72-1.12,1.83-3.78,3-2.38,1.4-11.61,15-7.56,14.13s25.89-10.25,30.65-12.52S276.11,215.88,271.5,219.12Zm-27.43-20.39c-1.82-2.48-3.22-6.9-1.12-7.44a79.38,79.38,0,0,1,8.26-1.73c2.38-.32,4.2,3.24,6,4.86s-.84,2.26-3.07,3.67S245.61,201.32,244.07,198.73Z"/><path d="M301.58,202.62c2.24,3.34,1.4,5.17-1,5.07-2.1,0-2-3.78-8-.87s-18.05,13.38-20.28,18-.28,8.2,9.93,5.61c10.63-2.59,31.9-11,45.34-18.23,2.65-1.3,3.49.32-.56,4.53-3.78,4.1-44.08,22.11-52.76,23-6.57.75-12.31-2.7-14.41-6.69s-3.22-7.55,0-12.3c2.94-4.86,20.71-20.39,27.85-21.68C291.64,198.41,299.34,199.16,301.58,202.62Z"/><path d="M333.62,219.23c1.4,0,22.53-7.88,23.65-7.45,2.1,1.19,2.94,3.46,1.26,4.86-2.24,2.05-5.6,5.18-2,3.45,3.36-1.73,28.82-8.84,34-10.14s.84,3.78-6.3,7.23-27.14,11.43-31.34,12.62-12.73-.32-10.07-6.15c-5,2.27-10.78,3.56-14,4.53s-12.87-1.62-11.33-8.84,17.49-14.57,22-15.43,12-1.08,15.81,2.16c1,.75-.42,2.37-2.24,2.05C351.39,208.12,333.62,215.88,333.62,219.23Z"/><g style="opacity:0.18;mix-blend-mode:multiply"><path d="M267.5,25.65C251,14.61,237.32,4.33,216.65,2.73,174-.58,138,32.11,133.1,73.93c-3.61,30.92,14.21,59.16,41.32,73.49,15.78,8.34,34.6,11.14,51.92,6.86,13.13-3.25,25.76-10.61,36.77-18.3-15.55,6.4-29.2,12.62-47,10.37a69.32,69.32,0,0,1-56.55-45.75c-9-26,.8-55.88,21.23-73.7C205.51,5.35,241.17,8,267.5,25.65Z" style="stroke:#000;stroke-miterlimit:10"/><path d="M179.17,36.38c11.69-8.74,21.36-16.83,36.49-18.8,31.25-4.07,59,18.56,64.16,49.12,3.84,22.58-8.17,44-27.54,55.6a54.67,54.67,0,0,1-37.9,7c-9.77-1.88-19.34-6.81-27.73-12,11.67,4.1,21.95,8.15,34.95,5.81a51,51,0,0,0,39.8-35.81C267,67.84,258.66,46.27,243,34,224,19.08,197.84,22.41,179.17,36.38Z" style="stroke:#000;stroke-miterlimit:10"/><path d="M243.86,69.35c-5.13-7.9-9.41-16.47-18.26-21.17-23.14-12.28-50.26,2.89-53.83,28.36-2.77,19.72,10.66,36,29.89,40a43.65,43.65,0,0,0,13.73.6c-2.56.29-6.27-.68-8.64-1.47a43.42,43.42,0,0,1-12.5-6.49c-6-4.48-9.73-10.76-12-17.79-3.37-10.42,0-22.81,7.82-30.57C206.67,44.35,231.88,50.87,243.86,69.35Z" style="stroke:#000;stroke-miterlimit:10"/><path d="M195.5,98.66c4.82,4.14,9.23,8.87,15.86,10.22,17.31,3.53,32-11.46,29.43-28.62-2-13.29-13.77-21.28-27-20.2a29.43,29.43,0,0,0-9,2.23,15.77,15.77,0,0,1,5.87-.7A29.44,29.44,0,0,1,220,63.41a23.55,23.55,0,0,1,11.15,9.22c4.17,6.1,4.35,14.76.77,21.28C224.34,107.75,206.78,108.33,195.5,98.66Z" style="stroke:#000;stroke-miterlimit:10"/></g><path d="M265.5,23.65C249,12.61,235.32,2.33,214.65.73,172-2.58,136,30.11,131.1,71.93c-3.61,30.92,14.21,59.16,41.32,73.49,15.78,8.34,34.6,11.14,51.92,6.86,13.13-3.25,25.76-10.61,36.77-18.3-15.55,6.4-29.2,12.62-47,10.37A69.32,69.32,0,0,1,157.56,98.6c-9-26,.8-55.88,21.23-73.7C203.51,3.35,239.17,6,265.5,23.65Z" style="stroke:#020202;stroke-miterlimit:10"/><path d="M177.17,34.38c11.69-8.74,21.36-16.83,36.49-18.8,31.25-4.07,59,18.56,64.16,49.12,3.84,22.58-8.17,44-27.54,55.6a54.67,54.67,0,0,1-37.9,7c-9.77-1.88-19.34-6.81-27.73-12,11.67,4.1,21.95,8.15,34.95,5.81a51,51,0,0,0,39.8-35.81C265,65.84,256.66,44.27,241,32,222,17.08,195.84,20.41,177.17,34.38Z" style="stroke:#020202;stroke-miterlimit:10"/><path d="M241.86,67.35c-5.13-7.9-9.41-16.47-18.26-21.17-23.14-12.28-50.26,2.89-53.83,28.36-2.77,19.72,10.66,36,29.89,40a43.65,43.65,0,0,0,13.73.6c-2.56.29-6.27-.68-8.64-1.47a43.42,43.42,0,0,1-12.5-6.49c-6-4.48-9.73-10.76-12-17.79-3.37-10.42,0-22.81,7.82-30.57C204.67,42.35,229.88,48.87,241.86,67.35Z" style="stroke:#000;stroke-miterlimit:10"/><path d="M193.5,96.66c4.82,4.14,9.23,8.87,15.86,10.22,17.31,3.53,32-11.46,29.43-28.62-2-13.29-13.77-21.28-27-20.2a29.43,29.43,0,0,0-9,2.23,15.77,15.77,0,0,1,5.87-.7A29.44,29.44,0,0,1,218,61.41a23.55,23.55,0,0,1,11.15,9.22c4.17,6.1,4.35,14.76.77,21.28C222.34,105.75,204.78,106.33,193.5,96.66Z" style="stroke:#000;stroke-miterlimit:10"/></g></svg>