<svg xmlns="http://www.w3.org/2000/svg" xmlns:xlink="http://www.w3.org/1999/xlink" viewBox="0 0 124.82 20.66"><defs><linearGradient id="a" x1="5.04" y1="9.94" x2="16.91" y2="9.94" gradientUnits="userSpaceOnUse"><stop offset="0" stop-color="#ff7bac"/><stop offset="0.37" stop-color="#ff7bac" stop-opacity="0.99"/><stop offset="0.51" stop-color="#ff7bac" stop-opacity="0.97"/><stop offset="0.6" stop-color="#ff7bac" stop-opacity="0.92"/><stop offset="0.68" stop-color="#ff7bac" stop-opacity="0.85"/><stop offset="0.75" stop-color="#ff7bac" stop-opacity="0.77"/><stop offset="0.8" stop-color="#ff7bac" stop-opacity="0.66"/><stop offset="0.86" stop-color="#ff7bac" stop-opacity="0.53"/><stop offset="0.91" stop-color="#ff7bac" stop-opacity="0.38"/><stop offset="0.95" stop-color="#ff7bac" stop-opacity="0.22"/><stop offset="0.99" stop-color="#ff7bac" stop-opacity="0.04"/><stop offset="1" stop-color="#ff7bac" stop-opacity="0"/></linearGradient><linearGradient id="b" x1="17.21" y1="11.84" x2="29.67" y2="11.84" xlink:href="#a"/><linearGradient id="c" x1="30.26" y1="9.86" x2="38.45" y2="9.86" xlink:href="#a"/><linearGradient id="d" x1="38.73" y1="8.18" x2="47.5" y2="8.18" xlink:href="#a"/><linearGradient id="e" x1="53.55" y1="10.36" x2="63.78" y2="10.36" xlink:href="#a"/><linearGradient id="f" x1="70" y1="10.26" x2="81.81" y2="10.26" xlink:href="#a"/><linearGradient id="g" x1="82.3" y1="10.17" x2="91.77" y2="10.17" xlink:href="#a"/><linearGradient id="h" x1="92.2" y1="11.72" x2="110.08" y2="11.72" xlink:href="#a"/><linearGradient id="i" x1="110.59" y1="10.26" x2="121.34" y2="10.26" xlink:href="#a"/><linearGradient id="j" x1="4.04" y1="7.91" x2="15.91" y2="7.91" gradientUnits="userSpaceOnUse"><stop offset="0" stop-color="#ff1d25"/><stop offset="0.55" stop-color="#ff5170" stop-opacity="0.44"/><stop offset="1" stop-color="#ff7bac" stop-opacity="0"/></linearGradient><linearGradient id="k" x1="16.21" y1="9.72" x2="28.67" y2="9.72" xlink:href="#j"/><linearGradient id="l" x1="29.26" y1="9.72" x2="37.45" y2="9.72" xlink:href="#j"/><linearGradient id="m" x1="37.73" y1="8.6" x2="46.5" y2="8.6" xlink:href="#j"/><linearGradient id="n" x1="52.55" y1="9.72" x2="62.78" y2="9.72" xlink:href="#j"/><linearGradient id="o" x1="69" y1="8.01" x2="80.81" y2="8.01" xlink:href="#j"/><linearGradient id="p" x1="81.3" y1="9.72" x2="90.77" y2="9.72" xlink:href="#j"/><linearGradient id="q" x1="91.2" y1="9.72" x2="109.08" y2="9.72" xlink:href="#j"/><linearGradient id="r" x1="109.59" y1="9.72" x2="120.34" y2="9.72" xlink:href="#j"/></defs><title>Asset 1</title><path d="M9.77,17.8c-1.65.95-1.8.91-2.31.78A1.55,1.55,0,0,1,6.6,18c-.14-.2-.85-1.07-1.56-2l-.93-1.16L4,15c-1.49.9-1.72,1-2.37.88a1.53,1.53,0,0,1-.94-.71,1.51,1.51,0,0,1,.55-2.05l.23-.1,1-.58c1.57-1,1.81-1.11,2.48-.94a1.47,1.47,0,0,1,.86.6c.16.21.92,1.15,1.66,2.07l.86,1.08,3.08-1.84c4.41-2.65,4.41-2.65,5.12-2.47a1.51,1.51,0,0,1,.38,2.76,1.69,1.69,0,0,1-.31.13c-.5.26-2.3,1.34-3.64,2.15S10.48,17.39,9.77,17.8Zm5-4.68a1.51,1.51,0,0,0,.43.47A1.49,1.49,0,0,1,14.77,13.12ZM9,16.23v0Zm-5.8-2.59h0ZM14.41,10c-1,.56-1.19.57-1.69.44a1.54,1.54,0,0,1-.94-.7c-.28-.5-.29-.5.11-4.19-1,.56-1.17.6-1.7.46a1.5,1.5,0,0,1-.38-2.75,1.28,1.28,0,0,1,.24-.11l1.21-.73c1.89-1.15,2.09-1.28,2.76-1.1A1.5,1.5,0,0,1,15,2c.28.48.28.48-.07,3.73,0,.15,0,.31-.05.48C16.92,4.94,17.08,4.87,17.75,5a1.5,1.5,0,0,1,.38,2.75,2,2,0,0,1-.3.14C17.5,8.1,16.63,8.64,16,9Zm1.67-2.74a1.58,1.58,0,0,0,.63.58A1.46,1.46,0,0,1,16.08,7.25ZM11.86,3.8h0Z" style="fill:url(#a)"/><path d="M10.46,5s.19-.14.21-.12,4,3,4.08,3.11.67-.41.68-.39" style="fill:none;stroke:#ff1d25;stroke-linecap:round;stroke-linejoin:round;stroke-width:3px;opacity:0.17966464399236204"/><path d="M6,10.87c0,.06,2.17-1.33,2.21-1.27S7.58,15,7.65,15.15s2.09-1.29,2.12-1.22" style="fill:none;stroke:#ff1d25;stroke-linecap:round;stroke-linejoin:round;stroke-width:3px;opacity:0.17966464399236204"/><path d="M4.59,13.31s.71-.44.73-.42" style="fill:none;stroke:#ff1d25;stroke-linecap:round;stroke-linejoin:round;stroke-width:3px;opacity:0.17966464399236204"/><path d="M10.46,3.58c0,.06,2.61-1.6,2.65-1.53s-.73,6.11-.65,6.26.93-.57.95-.55" style="fill:none;stroke:#ff1d25;stroke-linecap:round;stroke-linejoin:round;stroke-width:3px;opacity:0.17966464399236204"/><path d="M14.62,3.26s.33-.21.34-.19,0,5.07.06,5.18.78-.48.8-.46" style="fill:none;stroke:#ff1d25;stroke-linecap:round;stroke-linejoin:round;stroke-width:3px;opacity:0.17966464399236204"/><path d="M1.92,14.29c0,.06,2.54-1.56,2.58-1.49s3.19,4.13,3.25,4.25,7.64-4.58,7.72-4.45" style="fill:none;stroke:#ff1d25;stroke-linecap:round;stroke-linejoin:round;stroke-width:3px;opacity:0.17966464399236204"/><path d="M10.76,4.47c0,.07,3-1.81,3-1.74s-1.18,6.36-1.09,6.51,1-.63,1.06-.61" style="fill:none;stroke:#ff1d25;stroke-linecap:round;stroke-linejoin:round;stroke-width:3px;opacity:0.17966464399236204"/><path d="M9.19,5s1-.66,1.07-.62,4.4,2.78,4.46,2.89.59-.36.6-.35" style="fill:none;stroke:#ff1d25;stroke-linecap:round;stroke-linejoin:round;stroke-width:3px;opacity:0.17966464399236204"/><path d="M5.77,10.3c0,.06,2.28-1.41,2.32-1.34s-.72,5.48-.65,5.6l.17-.1" style="fill:none;stroke:#ff1d25;stroke-linecap:round;stroke-linejoin:round;stroke-width:3px;opacity:0.17966464399236204"/><path d="M4.61,12.8s.65-.41.67-.39" style="fill:none;stroke:#ff1d25;stroke-linecap:round;stroke-linejoin:round;stroke-width:3px;opacity:0.17966464399236204"/><path d="M10.5,2.78c0,.05,2.19-1.33,2.22-1.28s-.44,6-.36,6.09,1-.62,1-.59" style="fill:none;stroke:#ff1d25;stroke-linecap:round;stroke-linejoin:round;stroke-width:3px;opacity:0.17966464399236204"/><path d="M9.12,6.56s0,0,0,0,5.37,2.21,5.44,2.33,1-.63,1-.6c.11.18-4,7.67-3.94,7.85s4.17-2.46,4.19-2.42" style="fill:none;stroke:#ff1d25;stroke-linecap:round;stroke-linejoin:round;stroke-width:3px;opacity:0.17966464399236204"/><path d="M7.1,15.3s0,0,0,0" style="fill:none;stroke:#ff1d25;stroke-linecap:round;stroke-linejoin:round;stroke-width:3px;opacity:0.17966464399236204"/><path d="M1.5,15.41c0,.07,2.67-1.64,2.71-1.56" style="fill:none;stroke:#ff1d25;stroke-linecap:round;stroke-linejoin:round;stroke-width:3px;opacity:0.17966464399236204"/><path d="M10.54,5.42s.6-.36.61-.35,1.29,5,1.36,5.1.73-.45.75-.43" style="fill:none;stroke:#ff1d25;stroke-linecap:round;stroke-linejoin:round;stroke-width:3px;opacity:0.17966464399236204"/><path d="M13.66,4.07s.4-.25.41-.24.46,4.82.52,4.92.93-.57.95-.55" style="fill:none;stroke:#ff1d25;stroke-linecap:round;stroke-linejoin:round;stroke-width:3px;opacity:0.17966464399236204"/><path d="M1.64,14.59c0,.06,2.52-1.55,2.56-1.48s3.25,4.1,3.32,4.22,5.77-3.45,5.82-3.37" style="fill:none;stroke:#ff1d25;stroke-linecap:round;stroke-linejoin:round;stroke-width:3px;opacity:0.17966464399236204"/><path d="M10.45,4.76c0,.07,3-1.86,3.08-1.78s-1.1,6.32-1,6.47.82-.5.83-.48" style="fill:none;stroke:#ff1d25;stroke-linecap:round;stroke-linejoin:round;stroke-width:3px;opacity:0.17966464399236204"/><path d="M13.27,3.47s.5-.31.51-.29.73,4.9.79,5,.85-.53.87-.51" style="fill:none;stroke:#ff1d25;stroke-linecap:round;stroke-linejoin:round;stroke-width:3px;opacity:0.17966464399236204"/><path d="M5.86,11.38c0,.06,2.27-1.39,2.3-1.33s-.61,5.42-.55,5.54,2.78-1.71,2.83-1.63" style="fill:none;stroke:#ff1d25;stroke-linecap:round;stroke-linejoin:round;stroke-width:3px;opacity:0.17966464399236204"/><path d="M4.47,13.57s.64-.4.65-.38" style="fill:none;stroke:#ff1d25;stroke-linecap:round;stroke-linejoin:round;stroke-width:3px;opacity:0.17966464399236204"/><path d="M10.34,4.09c0,.07,2.86-1.75,2.91-1.68s-1,6.25-.89,6.4.82-.5.84-.48" style="fill:none;stroke:#ff1d25;stroke-linecap:round;stroke-linejoin:round;stroke-width:3px;opacity:0.17966464399236204"/><path d="M2.07,15c0,.06,2-1.23,2-1.16" style="fill:none;stroke:#ff1d25;stroke-linecap:round;stroke-linejoin:round;stroke-width:3px;opacity:0.17966464399236204"/><path d="M8,15.65s0,0,0,0" style="fill:none;stroke:#ff1d25;stroke-linecap:round;stroke-linejoin:round;stroke-width:3px;opacity:0.17966464399236204"/><path d="M11.24,6.48s.26-.17.27-.16,1.91,4.87,2,5,3.32-2,3.33-1.92" style="fill:none;stroke:#ff1d25;stroke-linecap:round;stroke-linejoin:round;stroke-width:3px;opacity:0.17966464399236204"/><path d="M10.85,5.31c0,.06,2.86-1.76,2.91-1.68S12.59,10,12.68,10.14s1-.62,1-.59" style="fill:none;stroke:#ff1d25;stroke-linecap:round;stroke-linejoin:round;stroke-width:3px;opacity:0.17966464399236204"/><path d="M21.67,11.69c-.75.43-1,.48-1.5.35a1.46,1.46,0,0,1-.93-.7,1.5,1.5,0,0,1,.55-2.05L20,9.18c.2-.11.59-.35,1-.6,1.6-1,1.85-1.13,2.51-1a1.56,1.56,0,0,1,.94.71,1.51,1.51,0,0,1-.55,2.05l-.25.11-1.08.65Zm.17-1.85h0Zm2.65,7.8c-2,1.16-2.15,1.13-2.65,1a1.54,1.54,0,0,1-.92-.7c-.37-.66-.39-.69.78-4-.84.48-1.07.49-1.55.37a1.52,1.52,0,0,1-.94-.71c-.3-.51-.3-.52.23-4.26-.68.38-.92.41-1.38.29a1.47,1.47,0,0,1-.93-.7,1.53,1.53,0,0,1,.78-2.16c.22-.12.66-.4,1.11-.67,1.81-1.1,2-1.22,2.66-1a1.53,1.53,0,0,1,.94.71c.29.5.29.5-.19,3.83l-.06.44c1.56-.95,1.77-1,2.38-.87a1.56,1.56,0,0,1,.94.71c.38.66.39.69-.8,4.07l.89-.53c4.9-2.9,4.9-2.89,5.57-2.72L31,12.14l-1.29.75L31,12.14l.58,1.37c-.34.17-2.6,1.5-4.24,2.47Z" style="fill:url(#b)"/><path d="M21,6.78s.67-.4.68-.39.26,5.18.33,5.28.32-.2.33-.19" style="fill:none;stroke:#ff1d25;stroke-linecap:round;stroke-linejoin:round;stroke-width:3px;opacity:0.17966464399236204"/><path d="M24.9,7s1.78-1.1,1.81-1" style="fill:none;stroke:#ff1d25;stroke-linecap:round;stroke-linejoin:round;stroke-width:3px;opacity:0.17966464399236204"/><path d="M24.18,8.68s.31-.19.32-.18,2.28,4.65,2.35,4.77,2.55-1.48,2.56-1.47" style="fill:none;stroke:#ff1d25;stroke-linecap:round;stroke-linejoin:round;stroke-width:3px;opacity:0.17966464399236204"/><path d="M18.25,6.72s2-1.23,2-1.18-.13,5.78-.05,5.92.55-.34.56-.33c.1.17-1.91,6.21-1.81,6.38s8-4.71,8-4.63" style="fill:none;stroke:#ff1d25;stroke-linecap:round;stroke-linejoin:round;stroke-width:3px;opacity:0.17966464399236204"/><path d="M17.81,9.27s0,0,0,0,4.38,2.8,4.44,2.9.43-.26.43-.25" style="fill:none;stroke:#ff1d25;stroke-linecap:round;stroke-linejoin:round;stroke-width:3px;opacity:0.17966464399236204"/><path d="M25.18,8s2.18-1.35,2.21-1.28" style="fill:none;stroke:#ff1d25;stroke-linecap:round;stroke-linejoin:round;stroke-width:3px;opacity:0.17966464399236204"/><path d="M24.07,9.46s.45-.28.46-.26l2.65,4.6s2.75-1.61,2.76-1.59" style="fill:none;stroke:#ff1d25;stroke-linecap:round;stroke-linejoin:round;stroke-width:3px;opacity:0.17966464399236204"/><path d="M18.6,7.75c0,.06,2.41-1.48,2.45-1.42s-.56,6-.48,6.16.37-.22.38-.21-.64,5.5-.56,5.65,7.05-4.14,7.08-4.09" style="fill:none;stroke:#ff1d25;stroke-linecap:round;stroke-linejoin:round;stroke-width:3px;opacity:0.17966464399236204"/><path d="M27.69,6.28s.38-.24.39-.23,0,5.32.07,5.43l.23-.14" style="fill:none;stroke:#ff1d25;stroke-linecap:round;stroke-linejoin:round;stroke-width:3px;opacity:0.17966464399236204"/><path d="M24.85,6.3s1.59-1,1.62-.93" style="fill:none;stroke:#ff1d25;stroke-linecap:round;stroke-linejoin:round;stroke-width:3px;opacity:0.17966464399236204"/><path d="M18.24,8.15s.37-.24.38-.22S20.13,13,20.2,13.14s2.71-1.58,2.72-1.57" style="fill:none;stroke:#ff1d25;stroke-linecap:round;stroke-linejoin:round;stroke-width:3px;opacity:0.17966464399236204"/><path d="M18.26,6.13s2-1.21,2-1.16-.21,5.82-.13,6,.63-.38.64-.37c.1.18-2.3,6.42-2.19,6.6s8.33-4.92,8.38-4.84" style="fill:none;stroke:#ff1d25;stroke-linecap:round;stroke-linejoin:round;stroke-width:3px;opacity:0.17966464399236204"/><path d="M27,8.48s.31-.19.31-.18.76,4.89.81,5,.65-.4.66-.38" style="fill:none;stroke:#ff1d25;stroke-linecap:round;stroke-linejoin:round;stroke-width:3px;opacity:0.17966464399236204"/><path d="M25.05,9s.41-.26.42-.24" style="fill:none;stroke:#ff1d25;stroke-linecap:round;stroke-linejoin:round;stroke-width:3px;opacity:0.17966464399236204"/><path d="M16.78,10s.23-.15.24-.14,3.29,4.07,3.36,4.19,2.84-1.66,2.84-1.64" style="fill:none;stroke:#ff1d25;stroke-linecap:round;stroke-linejoin:round;stroke-width:3px;opacity:0.17966464399236204"/><path d="M18.35,8.45s.39-.23.39-.23,1.47,4.88,1.54,5l.17-.1c.08.15-.45,5.4-.36,5.54s6.66-3.91,6.69-3.86" style="fill:none;stroke:#ff1d25;stroke-linecap:round;stroke-linejoin:round;stroke-width:3px;opacity:0.17966464399236204"/><path d="M20.26,7.71s.56-.34.57-.33,1,4.73,1.1,4.83.53-.32.53-.31" style="fill:none;stroke:#ff1d25;stroke-linecap:round;stroke-linejoin:round;stroke-width:3px;opacity:0.17966464399236204"/><path d="M25,8.24s.17-.12.18-.1" style="fill:none;stroke:#ff1d25;stroke-linecap:round;stroke-linejoin:round;stroke-width:3px;opacity:0.17966464399236204"/><path d="M23.39,9.77s.48-.3.49-.28,2.89,4.31,2.95,4.43,2.85-1.67,2.86-1.66" style="fill:none;stroke:#ff1d25;stroke-linecap:round;stroke-linejoin:round;stroke-width:3px;opacity:0.17966464399236204"/><path d="M18.35,8.07S19,7.7,19,7.71s1.29,5,1.36,5.1l.27-.16c.08.14-.08,5.2,0,5.34s6.58-3.86,6.61-3.82" style="fill:none;stroke:#ff1d25;stroke-linecap:round;stroke-linejoin:round;stroke-width:3px;opacity:0.17966464399236204"/><path d="M20.5,7.13s.54-.33.55-.32.72,4.92.78,5,.35-.22.36-.21" style="fill:none;stroke:#ff1d25;stroke-linecap:round;stroke-linejoin:round;stroke-width:3px;opacity:0.17966464399236204"/><path d="M24.77,7.55s1.85-1.14,1.89-1.09" style="fill:none;stroke:#ff1d25;stroke-linecap:round;stroke-linejoin:round;stroke-width:3px;opacity:0.17966464399236204"/><path d="M23.8,9.07s.39-.24.4-.23,2.38,4.6,2.45,4.72S29.39,12,29.4,12" style="fill:none;stroke:#ff1d25;stroke-linecap:round;stroke-linejoin:round;stroke-width:3px;opacity:0.17966464399236204"/><path d="M18.12,7.28S20.32,5.93,20.35,6s-.34,5.89-.25,6,.55-.34.56-.33c.1.16-1.39,5.93-1.3,6.08S27,13.29,27,13.36" style="fill:none;stroke:#ff1d25;stroke-linecap:round;stroke-linejoin:round;stroke-width:3px;opacity:0.17966464399236204"/><path d="M27.7,8.68s.51-.31.51-.3.23,5.19.29,5.3.75-.46.76-.44" style="fill:none;stroke:#ff1d25;stroke-linecap:round;stroke-linejoin:round;stroke-width:3px;opacity:0.17966464399236204"/><path d="M25.32,8.93c0,.05,2.13-1.32,2.16-1.25" style="fill:none;stroke:#ff1d25;stroke-linecap:round;stroke-linejoin:round;stroke-width:3px;opacity:0.17966464399236204"/><path d="M16.94,10.09s.51-.31.52-.3,3.31,4.06,3.38,4.18,2.74-1.6,2.75-1.58" style="fill:none;stroke:#ff1d25;stroke-linecap:round;stroke-linejoin:round;stroke-width:3px;opacity:0.17966464399236204"/><path d="M18.74,8.46l.41-.24c.06.1,1.38,4.93,1.45,5l.23-.14c.08.13,1,4.61,1,4.74s5.4-3.14,5.41-3.13" style="fill:none;stroke:#ff1d25;stroke-linecap:round;stroke-linejoin:round;stroke-width:3px;opacity:0.17966464399236204"/><path d="M32.49,14.56a1.53,1.53,0,0,1-1.26.24l.21-.85a1.45,1.45,0,0,1-.28-.36l1.73-1-1.3.75L30.93,12l.28-.17a1.91,1.91,0,0,1,1.61-.44,1.5,1.5,0,0,1,.93.7A1.52,1.52,0,0,1,33,14.22l-.24.16Zm1.22-2.42a1.6,1.6,0,0,1-1.41.31,1.5,1.5,0,0,1-.19-2.85l.68-.41c1.2-.74,1.48-.91,2.14-.74a1.5,1.5,0,0,1,.93.7,1.53,1.53,0,0,1-.77,2.15l-.73.45ZM34,10.25h0Zm2.82,3.1c-.89.51-1.11.53-1.61.41a1.51,1.51,0,0,1-.93-.71c-.26-.44-.26-.44-.18-4V9c-1.8,1.1-2,1.16-2.59,1a1.51,1.51,0,0,1-.93-.71,1.49,1.49,0,0,1,.55-2.05,1.23,1.23,0,0,1,.26-.12c.28-.15,1-.59,1.5-.9,2.27-1.39,2.41-1.47,3.1-1.3a1.51,1.51,0,0,1,.93.71c.24.41.24.41.18,3.46,0,.18,0,.38,0,.58,1.61-1,1.8-1.06,2.43-.9a1.5,1.5,0,0,1,.39,2.75,1.23,1.23,0,0,1-.29.13c-.28.15-1,.58-1.45.88Zm1-2.36a1.47,1.47,0,0,0,.68.61A1.43,1.43,0,0,1,37.82,11ZM33.14,7.8h0Zm-.66-.61a1.54,1.54,0,0,1,.66.61A1.53,1.53,0,0,0,32.48,7.19Z" style="fill:url(#c)"/><path d="M35.69,7.3s.63-.38.64-.37" style="fill:none;stroke:#ff1d25;stroke-linecap:round;stroke-linejoin:round;stroke-width:3px;opacity:0.17966464399236204"/><path d="M35.49,8s1-.64,1-.6,1.26,4.35,1.32,4.45.61-.37.62-.36" style="fill:none;stroke:#ff1d25;stroke-linecap:round;stroke-linejoin:round;stroke-width:3px;opacity:0.17966464399236204"/><path d="M27.28,14.68c0,.05,1.85-1.14,1.88-1.08" style="fill:none;stroke:#ff1d25;stroke-linecap:round;stroke-linejoin:round;stroke-width:3px;opacity:0.17966464399236204"/><path d="M31.57,7.86c.05.09,3.88-2.38,3.94-2.27s-3.22,7.48-3.1,7.67l.13-.08" style="fill:none;stroke:#ff1d25;stroke-linecap:round;stroke-linejoin:round;stroke-width:3px;opacity:0.17966464399236204"/><path d="M36,6.74s.39-.25.4-.23" style="fill:none;stroke:#ff1d25;stroke-linecap:round;stroke-linejoin:round;stroke-width:3px;opacity:0.17966464399236204"/><path d="M31.36,11.51s1.47-.9,1.49-.86" style="fill:none;stroke:#ff1d25;stroke-linecap:round;stroke-linejoin:round;stroke-width:3px;opacity:0.17966464399236204"/><path d="M31.76,8.72s.61-.36.62-.35,1.42,4.9,1.49,5S36,12.12,36,12.17" style="fill:none;stroke:#ff1d25;stroke-linecap:round;stroke-linejoin:round;stroke-width:3px;opacity:0.17966464399236204"/><path d="M37.57,6.15s.12-.09.13-.08" style="fill:none;stroke:#ff1d25;stroke-linecap:round;stroke-linejoin:round;stroke-width:3px;opacity:0.17966464399236204"/><path d="M30.83,10s1.22-.75,1.24-.71,4.43,3.4,4.51,3.52,2.76-1.61,2.77-1.6" style="fill:none;stroke:#ff1d25;stroke-linecap:round;stroke-linejoin:round;stroke-width:3px;opacity:0.17966464399236204"/><path d="M31.81,7c0,.08,3.42-2.1,3.47-2s-3.15,7.44-3,7.64,3.23-2,3.29-1.9" style="fill:none;stroke:#ff1d25;stroke-linecap:round;stroke-linejoin:round;stroke-width:3px;opacity:0.17966464399236204"/><path d="M31.38,10.14s.24-.17.25-.14,4.81,2.54,4.87,2.65,2-1.24,2-1.19" style="fill:none;stroke:#ff1d25;stroke-linecap:round;stroke-linejoin:round;stroke-width:3px;opacity:0.17966464399236204"/><path d="M30,14.56s.25-.15.25-.14,3.65,3,3.71,3.08,1.9-1.17,1.93-1.12" style="fill:none;stroke:#ff1d25;stroke-linecap:round;stroke-linejoin:round;stroke-width:3px;opacity:0.17966464399236204"/><path d="M27.94,16.26s.39-.24.4-.23" style="fill:none;stroke:#ff1d25;stroke-linecap:round;stroke-linejoin:round;stroke-width:3px;opacity:0.17966464399236204"/><path d="M31.53,9.58c0,.09,3.67-2.25,3.73-2.16" style="fill:none;stroke:#ff1d25;stroke-linecap:round;stroke-linejoin:round;stroke-width:3px;opacity:0.17966464399236204"/><path d="M36.36,7s.1-.08.11-.07.24,4.94.31,5,.91-.57.93-.54" style="fill:none;stroke:#ff1d25;stroke-linecap:round;stroke-linejoin:round;stroke-width:3px;opacity:0.17966464399236204"/><path d="M26.94,15.78s1.19-.74,1.21-.7,5.13,2.42,5.2,2.55,4.3-2.55,4.33-2.5" style="fill:none;stroke:#ff1d25;stroke-linecap:round;stroke-linejoin:round;stroke-width:3px;opacity:0.17966464399236204"/><path d="M31.51,8.92c0,.06,2.41-1.48,2.45-1.41s-.4,5.92-.31,6.06,2-1.21,2-1.16" style="fill:none;stroke:#ff1d25;stroke-linecap:round;stroke-linejoin:round;stroke-width:3px;opacity:0.17966464399236204"/><path d="M34.41,7.06s.5-.31.51-.3" style="fill:none;stroke:#ff1d25;stroke-linecap:round;stroke-linejoin:round;stroke-width:3px;opacity:0.17966464399236204"/><path d="M35.34,8.47s1-.62,1-.58,1.25,4.37,1.31,4.47.76-.47.77-.45" style="fill:none;stroke:#ff1d25;stroke-linecap:round;stroke-linejoin:round;stroke-width:3px;opacity:0.17966464399236204"/><path d="M27.19,15.46s2.1-1.29,2.14-1.23" style="fill:none;stroke:#ff1d25;stroke-linecap:round;stroke-linejoin:round;stroke-width:3px;opacity:0.17966464399236204"/><path d="M31.42,8.25s.63-.38.64-.37.13,5.63.2,5.76l.2-.11" style="fill:none;stroke:#ff1d25;stroke-linecap:round;stroke-linejoin:round;stroke-width:3px;opacity:0.17966464399236204"/><path d="M31.45,10.11s.48-.31.49-.28,5.64,2.05,5.71,2.17,0-.07,0,0" style="fill:none;stroke:#ff1d25;stroke-linecap:round;stroke-linejoin:round;stroke-width:3px;opacity:0.17966464399236204"/><path d="M30.37,14.52s.24-.15.25-.14,3.69,2.95,3.75,3,2.21-1.36,2.25-1.29" style="fill:none;stroke:#ff1d25;stroke-linecap:round;stroke-linejoin:round;stroke-width:3px;opacity:0.17966464399236204"/><path d="M28.29,16.33s.5-.31.51-.29" style="fill:none;stroke:#ff1d25;stroke-linecap:round;stroke-linejoin:round;stroke-width:3px;opacity:0.17966464399236204"/><path d="M31.78,9.56c.06.09,3.81-2.33,3.87-2.23" style="fill:none;stroke:#ff1d25;stroke-linecap:round;stroke-linejoin:round;stroke-width:3px;opacity:0.17966464399236204"/><path d="M43.68,13.13c-1,.56-1.19.57-1.69.45a1.56,1.56,0,0,1-.94-.71c-.42-.74-.45-.78,1.49-5-2.43,1.48-2.49,1.47-3.14,1.3A1.5,1.5,0,0,1,39,6.43a1.22,1.22,0,0,1,.33-.14c.4-.22,1.61-1,2.51-1.51,3.48-2.13,3.55-2.17,4.28-2a1.5,1.5,0,0,1,.94.71c.43.74.43.74-1.5,4.93l0,.05c.77-.42,1-.42,1.44-.3a1.5,1.5,0,0,1,.39,2.75,2.12,2.12,0,0,1-.31.14c-.33.17-1.19.7-1.78,1.07S44.07,12.9,43.68,13.13Zm1.66-2.73A1.46,1.46,0,0,0,46,11,1.53,1.53,0,0,1,45.34,10.4ZM41.07,7h0Zm-.53-.54a1.68,1.68,0,0,1,.53.53A1.49,1.49,0,0,0,40.54,6.44Z" style="fill:url(#d)"/><path d="M41.41,6.55s.38-.23.38-.22.79,5.51.87,5.64,3.13-1.84,3.15-1.82" style="fill:none;stroke:#ff1d25;stroke-linecap:round;stroke-linejoin:round;stroke-width:3px;opacity:0.17966464399236204"/><path d="M39.81,6.75c0,.08,3.57-2.19,3.62-2.1S42,11.14,42.12,11.3s1-.62,1-.6c.1.18-2,6.28-1.93,6.45s5.73-3.34,5.75-3.32" style="fill:none;stroke:#ff1d25;stroke-linecap:round;stroke-linejoin:round;stroke-width:3px;opacity:0.17966464399236204"/><path d="M45.45,12.94s.57-.37.58-.34" style="fill:none;stroke:#ff1d25;stroke-linecap:round;stroke-linejoin:round;stroke-width:3px;opacity:0.17966464399236204"/><path d="M41.24,7.64s.85-.53.86-.5.71,5.29.78,5.41S46,10.72,46,10.74" style="fill:none;stroke:#ff1d25;stroke-linecap:round;stroke-linejoin:round;stroke-width:3px;opacity:0.17966464399236204"/><path d="M40.25,7.51c0,.06,2.59-1.59,2.63-1.52s-.35,5.9-.26,6,.53-.32.54-.31c.09.16-1.57,6-1.48,6.18s6.13-3.58,6.15-3.55" style="fill:none;stroke:#ff1d25;stroke-linecap:round;stroke-linejoin:round;stroke-width:3px;opacity:0.17966464399236204"/><path d="M45.13,11.72s0,0,0,0" style="fill:none;stroke:#ff1d25;stroke-linecap:round;stroke-linejoin:round;stroke-width:3px;opacity:0.17966464399236204"/><path d="M41.58,5.76s.21-.13.22-.12.81,5.49.88,5.62,3.07-1.8,3.09-1.78" style="fill:none;stroke:#ff1d25;stroke-linecap:round;stroke-linejoin:round;stroke-width:3px;opacity:0.17966464399236204"/><path d="M39.57,5.94c.08.13,5.54-3.4,5.63-3.25S41.9,10.22,42,10.42c0,0,1.2-.74,1.22-.71.11.19-2.65,6.61-2.55,6.8,0,0,5.38-3.12,5.39-3.11" style="fill:none;stroke:#ff1d25;stroke-linecap:round;stroke-linejoin:round;stroke-width:3px;opacity:0.17966464399236204"/><path d="M44.69,14s1.4-.87,1.42-.82" style="fill:none;stroke:#ff1d25;stroke-linecap:round;stroke-linejoin:round;stroke-width:3px;opacity:0.17966464399236204"/><path d="M40.54,8.45s.8-.5.81-.47.88,5.45.95,5.58,5.78-3.45,5.83-3.36" style="fill:none;stroke:#ff1d25;stroke-linecap:round;stroke-linejoin:round;stroke-width:3px;opacity:0.17966464399236204"/><path d="M39.86,8.41s.51-.31.52-.3,1.74,4.72,1.81,4.84.32-.2.33-.19c.09.16-1.64,6.06-1.55,6.22s8.44-5,8.49-4.9" style="fill:none;stroke:#ff1d25;stroke-linecap:round;stroke-linejoin:round;stroke-width:3px;opacity:0.17966464399236204"/><path d="M45.07,13.24s.89-.56.91-.53" style="fill:none;stroke:#ff1d25;stroke-linecap:round;stroke-linejoin:round;stroke-width:3px;opacity:0.17966464399236204"/><path d="M40.76,7.83s.84-.53.86-.5.84,5.47.92,5.6,3.4-2,3.42-2" style="fill:none;stroke:#ff1d25;stroke-linecap:round;stroke-linejoin:round;stroke-width:3px;opacity:0.17966464399236204"/><path d="M40,7.9s1-.59,1-.57,1.29,5,1.37,5.1.51-.32.51-.3-1.39,5.92-1.3,6.08,7.89-4.65,7.94-4.58" style="fill:none;stroke:#ff1d25;stroke-linecap:round;stroke-linejoin:round;stroke-width:3px;opacity:0.17966464399236204"/><path d="M41,7.13s.66-.41.67-.39.73,5.54.81,5.67,3.31-1.95,3.32-1.92" style="fill:none;stroke:#ff1d25;stroke-linecap:round;stroke-linejoin:round;stroke-width:3px;opacity:0.17966464399236204"/><path d="M39.76,7.2c0,.06,2.43-1.49,2.47-1.43s-.22,5.83-.14,6,.82-.5.83-.48c.1.17-1.77,6.11-1.67,6.28s5.87-3.43,5.88-3.4" style="fill:none;stroke:#ff1d25;stroke-linecap:round;stroke-linejoin:round;stroke-width:3px;opacity:0.17966464399236204"/><path d="M45.25,13.83s1-.65,1.07-.61" style="fill:none;stroke:#ff1d25;stroke-linecap:round;stroke-linejoin:round;stroke-width:3px;opacity:0.17966464399236204"/><path d="M40.35,8.38s1-.62,1-.59,1.33,5.2,1.4,5.32,6.06-3.62,6.12-3.53" style="fill:none;stroke:#ff1d25;stroke-linecap:round;stroke-linejoin:round;stroke-width:3px;opacity:0.17966464399236204"/><path d="M40.23,8.33l.43-.25c.06.1,1.81,4.68,1.88,4.8s.3-.18.3-.17-1.47,6-1.38,6.12,8.32-4.91,8.37-4.82" style="fill:none;stroke:#ff1d25;stroke-linecap:round;stroke-linejoin:round;stroke-width:3px;opacity:0.17966464399236204"/><path d="M57.92,15.09c-1.43.83-1.65.81-2.16.68a1.55,1.55,0,0,1-.95-.71c-.42-.74-.45-.78,1.5-5-.85.47-1,.46-1.51.34a1.5,1.5,0,0,1-.38-2.75,1.75,1.75,0,0,1,.28-.13c.31-.16,1.16-.69,1.8-1.07C59.15,4.85,59.25,4.78,60,5a1.56,1.56,0,0,1,.94.71c.43.75.43.75-1.52,4.95l-.06.12.31-.19C64,7.85,64.18,7.75,65,7.94a1.56,1.56,0,0,1,.94.71,1.51,1.51,0,0,1-.55,2,1.85,1.85,0,0,1-.42.17c-.57.29-2.4,1.41-3.75,2.24C59.66,14.05,58.64,14.68,57.92,15.09Zm5.39-4.94a1.52,1.52,0,0,0,.33.41A1.49,1.49,0,0,1,63.31,10.15ZM56.47,8.22h0Zm-.62-.59a1.53,1.53,0,0,1,.62.59A1.46,1.46,0,0,0,55.85,7.63Z" style="fill:url(#e)"/><path d="M56.79,9.19s.39-.24.4-.23,3.27,4.08,3.34,4.2,2.85-1.66,2.86-1.65" style="fill:none;stroke:#ff1d25;stroke-linecap:round;stroke-linejoin:round;stroke-width:3px;opacity:0.17966464399236204"/><path d="M54.92,7.91C55,8,58.45,5.75,58.5,5.84s-2.85,7.29-2.74,7.47c0,0,.55-.33.56-.32s1.68,4.18,1.75,4.29,7.7-4.53,7.74-4.46" style="fill:none;stroke:#ff1d25;stroke-linecap:round;stroke-linejoin:round;stroke-width:3px;opacity:0.17966464399236204"/><path d="M55,9.83s1-.61,1-.58,5.17,3,5.25,3.1L63.65,11" style="fill:none;stroke:#ff1d25;stroke-linecap:round;stroke-linejoin:round;stroke-width:3px;opacity:0.17966464399236204"/><path d="M55.31,8.7c0,.09,3.64-2.23,3.7-2.13s-3,7.36-2.88,7.55c0,0,1.28-.79,1.3-.76" style="fill:none;stroke:#ff1d25;stroke-linecap:round;stroke-linejoin:round;stroke-width:3px;opacity:0.17966464399236204"/><path d="M57,8.58a1.43,1.43,0,0,1,.21-.12c.07.13,3.2,4.12,3.27,4.24s2.69-1.57,2.69-1.56" style="fill:none;stroke:#ff1d25;stroke-linecap:round;stroke-linejoin:round;stroke-width:3px;opacity:0.17966464399236204"/><path d="M54.75,7.29c0,.08,3.55-2.18,3.6-2.08s-2.82,7.27-2.72,7.45c0,0,.88-.53.89-.51s1.27,4.44,1.34,4.56,5.22-3,5.23-3" style="fill:none;stroke:#ff1d25;stroke-linecap:round;stroke-linejoin:round;stroke-width:3px;opacity:0.17966464399236204"/><path d="M55.38,10.61s.55-.35.56-.33,4.4,3.42,4.47,3.55,2.7-1.57,2.7-1.56" style="fill:none;stroke:#ff1d25;stroke-linecap:round;stroke-linejoin:round;stroke-width:3px;opacity:0.17966464399236204"/><path d="M54.93,9.77c0,.08,3.65-2.24,3.71-2.15s-3,7.36-2.87,7.55,3-1.85,3.06-1.77S58,19,58.08,19.16s7.7-4.53,7.73-4.47" style="fill:none;stroke:#ff1d25;stroke-linecap:round;stroke-linejoin:round;stroke-width:3px;opacity:0.17966464399236204"/><path d="M63,12.87s.67-.43.69-.4" style="fill:none;stroke:#ff1d25;stroke-linecap:round;stroke-linejoin:round;stroke-width:3px;opacity:0.17966464399236204"/><path d="M54.74,10s.85-.52.86-.5,5.28,2,5.35,2.12,2.73-1.59,2.74-1.57" style="fill:none;stroke:#ff1d25;stroke-linecap:round;stroke-linejoin:round;stroke-width:3px;opacity:0.17966464399236204"/><path d="M55,9.1s1.44-.88,1.46-.84-.67,6.07-.59,6.22,1.48-.91,1.5-.87" style="fill:none;stroke:#ff1d25;stroke-linecap:round;stroke-linejoin:round;stroke-width:3px;opacity:0.17966464399236204"/><path d="M55.11,9.45s.8-.49.81-.47,4.77,3.2,4.85,3.33l2.42-1.4" style="fill:none;stroke:#ff1d25;stroke-linecap:round;stroke-linejoin:round;stroke-width:3px;opacity:0.17966464399236204"/><path d="M54.79,8.37c.05.09,3.55-2.17,3.61-2.08s-2.85,7.28-2.75,7.47c0,0,.45-.27.46-.26" style="fill:none;stroke:#ff1d25;stroke-linecap:round;stroke-linejoin:round;stroke-width:3px;opacity:0.17966464399236204"/><path d="M60,8a4.77,4.77,0,0,1,.43-.25c.06.09,2,4,2,4.06s.44-.28.45-.26" style="fill:none;stroke:#ff1d25;stroke-linecap:round;stroke-linejoin:round;stroke-width:3px;opacity:0.17966464399236204"/><path d="M58.81,16.12s1.08-.66,1.1-.63" style="fill:none;stroke:#ff1d25;stroke-linecap:round;stroke-linejoin:round;stroke-width:3px;opacity:0.17966464399236204"/><path d="M55.29,9.67c.06.09,3.76-2.3,3.81-2.2s-3.05,7.39-2.94,7.58,2.06-1.26,2.09-1.21.14,5,.21,5.15,7.69-4.52,7.73-4.45" style="fill:none;stroke:#ff1d25;stroke-linecap:round;stroke-linejoin:round;stroke-width:3px;opacity:0.17966464399236204"/><path d="M57.91,12.24s1.92-1.17,1.94-1.12" style="fill:none;stroke:#ff1d25;stroke-linecap:round;stroke-linejoin:round;stroke-width:3px;opacity:0.17966464399236204"/><path d="M58,13.1c0,.05,2.17-1.33,2.21-1.27" style="fill:none;stroke:#ff1d25;stroke-linecap:round;stroke-linejoin:round;stroke-width:3px;opacity:0.17966464399236204"/><path d="M58,11.62s1.89-1.16,1.91-1.11" style="fill:none;stroke:#ff1d25;stroke-linecap:round;stroke-linejoin:round;stroke-width:3px;opacity:0.17966464399236204"/><path d="M57.68,14c0,.05,2-1.2,2-1.15" style="fill:none;stroke:#ff1d25;stroke-linecap:round;stroke-linejoin:round;stroke-width:3px;opacity:0.17966464399236204"/><path d="M57.74,13.32s2-1.24,2.06-1.19" style="fill:none;stroke:#ff1d25;stroke-linecap:round;stroke-linejoin:round;stroke-width:3px;opacity:0.17966464399236204"/><path d="M57.61,12.79c0,.05,2.06-1.25,2.09-1.2" style="fill:none;stroke:#ff1d25;stroke-linecap:round;stroke-linejoin:round;stroke-width:3px;opacity:0.17966464399236204"/><path d="M58,14s2-1.24,2.06-1.19" style="fill:none;stroke:#ff1d25;stroke-linecap:round;stroke-linejoin:round;stroke-width:3px;opacity:0.17966464399236204"/><path d="M74.6,12.18c-1,.55-1.14.54-1.64.42a1.51,1.51,0,0,1-.38-2.76,1.39,1.39,0,0,1,.28-.12c.3-.16,1.08-.65,1.67-1,2.46-1.5,2.6-1.59,3.3-1.41a1.5,1.5,0,0,1,.38,2.75,1,1,0,0,1-.3.13c-.33.18-1.21.72-1.82,1.09ZM76.17,9.5a1.43,1.43,0,0,0,.59.58A1.43,1.43,0,0,1,76.17,9.5Zm-1.54.89h0ZM74,9.79a1.54,1.54,0,0,1,.64.6A1.47,1.47,0,0,0,74,9.79Zm3,8.12c-2,1.16-2.13,1.12-2.63,1a1.48,1.48,0,0,1-.92-.7c-.35-.6-.36-.62.53-3.87-.86.5-1.08.51-1.58.39A1.51,1.51,0,0,1,71.5,14c-.59-1-.59-1,4.17-7.23L76,6.36a1.55,1.55,0,0,1-.52-.53,1.5,1.5,0,0,1,.55-2,1.42,1.42,0,0,1,.25-.12c.26-.14.93-.55,1.39-.83,2.1-1.28,2.27-1.39,3-1.22a1.51,1.51,0,0,1,.93.71c.57,1,.57,1-3.49,6.27l-1,1.29a1.54,1.54,0,0,1,.59.57c.35.61.36.63-.55,3.93l1.09-.65C83,10.92,83,10.92,83.66,11.09l-.38,1.45-1.3.75,1.3-.75.58,1.38c-.34.16-2.53,1.46-4.14,2.41Z" style="fill:url(#f)"/><path d="M81.21,2.63s0,0,0,0" style="fill:none;stroke:#ff1d25;stroke-linecap:round;stroke-linejoin:round;stroke-width:3px;opacity:0.17966464399236204"/><path d="M80.46,7.13l.05,0c.1.18-1.87,7-1.77,7.15s2.93-1.71,2.94-1.7" style="fill:none;stroke:#ff1d25;stroke-linecap:round;stroke-linejoin:round;stroke-width:3px;opacity:0.17966464399236204"/><path d="M76.63,4.14c0,.06,2.78-1.71,2.83-1.64.12.22-6.95,9.53-6.79,9.81,0,0,.55-.34.56-.33s0,5.17,0,5.31,6.58-3.86,6.6-3.82" style="fill:none;stroke:#ff1d25;stroke-linecap:round;stroke-linejoin:round;stroke-width:3px;opacity:0.17966464399236204"/><path d="M76.51,6s.43-.27.44-.25,2.27,4.66,2.34,4.78S81.88,9,81.88,9" style="fill:none;stroke:#ff1d25;stroke-linecap:round;stroke-linejoin:round;stroke-width:3px;opacity:0.17966464399236204"/><path d="M73.24,7.22c.06.1,4.2-2.58,4.27-2.46S73,13,73.11,13.18c0,.05,2-1.2,2-1.15s-.35,5.35-.27,5.49,5.27-3.06,5.28-3" style="fill:none;stroke:#ff1d25;stroke-linecap:round;stroke-linejoin:round;stroke-width:3px;opacity:0.17966464399236204"/><path d="M77,4.65s.23-.14.23-.13,1.63,5,1.7,5.15l2.43-1.4c.07.1-.93,5.65-.85,5.79s.47-.29.48-.28" style="fill:none;stroke:#ff1d25;stroke-linecap:round;stroke-linejoin:round;stroke-width:3px;opacity:0.17966464399236204"/><path d="M76.62,3.43c0,.06,2.55-1.56,2.59-1.49s-6.83,9.45-6.67,9.73c0,0,.61-.37.62-.35s-.31,5.32-.23,5.46,6.8-4,6.83-4" style="fill:none;stroke:#ff1d25;stroke-linecap:round;stroke-linejoin:round;stroke-width:3px;opacity:0.17966464399236204"/><path d="M75.79,6.94s.26-.17.27-.16,2.61,4.47,2.68,4.58,3-1.77,3-1.75" style="fill:none;stroke:#ff1d25;stroke-linecap:round;stroke-linejoin:round;stroke-width:3px;opacity:0.17966464399236204"/><path d="M72.41,8.48c.07.11,4.63-2.83,4.7-2.71s-4.47,8.17-4.35,8.39,3.91-2.39,4-2.29-2.45,6.51-2.35,6.69c0,0,5.3-3.08,5.31-3.06" style="fill:none;stroke:#ff1d25;stroke-linecap:round;stroke-linejoin:round;stroke-width:3px;opacity:0.17966464399236204"/><path d="M76.46,6.24s.37-.23.38-.22,1.94,4.85,2,5,2.81-1.64,2.82-1.62" style="fill:none;stroke:#ff1d25;stroke-linecap:round;stroke-linejoin:round;stroke-width:3px;opacity:0.17966464399236204"/><path d="M76.58,5.32s1.91-1.17,1.94-1.12c.11.2-5.87,8.93-5.72,9.19,0,0,2-1.22,2-1.17s-.46,5.41-.38,5.55,5.38-3.12,5.39-3.11" style="fill:none;stroke:#ff1d25;stroke-linecap:round;stroke-linejoin:round;stroke-width:3px;opacity:0.17966464399236204"/><path d="M76.33,5.58s.36-.22.36-.21,2.11,4.76,2.18,4.88,2.62-1.53,2.63-1.52" style="fill:none;stroke:#ff1d25;stroke-linecap:round;stroke-linejoin:round;stroke-width:3px;opacity:0.17966464399236204"/><path d="M76.44,4.68s.77-.47.78-.45-4.75,8.32-4.62,8.54c0,0,.45-.27.46-.26s.57,4.83.65,5,6.15-3.6,6.16-3.56" style="fill:none;stroke:#ff1d25;stroke-linecap:round;stroke-linejoin:round;stroke-width:3px;opacity:0.17966464399236204"/><path d="M76.17,6.93s.32-.2.33-.19,2.63,4.45,2.7,4.57,2.88-1.68,2.89-1.66" style="fill:none;stroke:#ff1d25;stroke-linecap:round;stroke-linejoin:round;stroke-width:3px;opacity:0.17966464399236204"/><path d="M72.61,8.55c.07.12,5.09-3.13,5.17-3s-4.73,8.31-4.6,8.54,3.63-2.23,3.69-2.13-2.19,6.36-2.09,6.54c0,0,5.19-3,5.19-3" style="fill:none;stroke:#ff1d25;stroke-linecap:round;stroke-linejoin:round;stroke-width:3px;opacity:0.17966464399236204"/><path d="M72.94,11.45s.86-.53.88-.5" style="fill:none;stroke:#ff1d25;stroke-linecap:round;stroke-linejoin:round;stroke-width:3px;opacity:0.17966464399236204"/><path d="M74.87,8.08s1.73-1,1.75-1,0,5.32,0,5.45,2-1.26,2.07-1.2" style="fill:none;stroke:#ff1d25;stroke-linecap:round;stroke-linejoin:round;stroke-width:3px;opacity:0.17966464399236204"/><path d="M73,11.68s.91-.57.93-.54" style="fill:none;stroke:#ff1d25;stroke-linecap:round;stroke-linejoin:round;stroke-width:3px;opacity:0.17966464399236204"/><path d="M75.14,9.19S77.05,8,77.08,8.06" style="fill:none;stroke:#ff1d25;stroke-linecap:round;stroke-linejoin:round;stroke-width:3px;opacity:0.17966464399236204"/><path d="M72.82,11.19s1-.59,1-.56" style="fill:none;stroke:#ff1d25;stroke-linecap:round;stroke-linejoin:round;stroke-width:3px;opacity:0.17966464399236204"/><path d="M74.65,7.34s1.74-1.07,1.76-1-.49,5.9-.41,6,1.29-.79,1.31-.75" style="fill:none;stroke:#ff1d25;stroke-linecap:round;stroke-linejoin:round;stroke-width:3px;opacity:0.17966464399236204"/><path d="M72.78,12.32s.57-.35.58-.33" style="fill:none;stroke:#ff1d25;stroke-linecap:round;stroke-linejoin:round;stroke-width:3px;opacity:0.17966464399236204"/><path d="M74.55,10.3s1.27-.77,1.28-.74.42,5,.49,5.09,2.44-1.5,2.47-1.43" style="fill:none;stroke:#ff1d25;stroke-linecap:round;stroke-linejoin:round;stroke-width:3px;opacity:0.17966464399236204"/><path d="M73.06,11.76s.5-.31.51-.29" style="fill:none;stroke:#ff1d25;stroke-linecap:round;stroke-linejoin:round;stroke-width:3px;opacity:0.17966464399236204"/><path d="M74.79,9.53c0,.05,2.32-1.42,2.36-1.36" style="fill:none;stroke:#ff1d25;stroke-linecap:round;stroke-linejoin:round;stroke-width:3px;opacity:0.17966464399236204"/><path d="M73.13,11.52s.5-.31.51-.3" style="fill:none;stroke:#ff1d25;stroke-linecap:round;stroke-linejoin:round;stroke-width:3px;opacity:0.17966464399236204"/><path d="M74.67,8.61s1.8-1.1,1.83-1.06-.09,5.27,0,5.4,2.19-1.35,2.23-1.29" style="fill:none;stroke:#ff1d25;stroke-linecap:round;stroke-linejoin:round;stroke-width:3px;opacity:0.17966464399236204"/><path d="M73.09,12.23s.64-.4.65-.37" style="fill:none;stroke:#ff1d25;stroke-linecap:round;stroke-linejoin:round;stroke-width:3px;opacity:0.17966464399236204"/><path d="M75,10.09s1-.62,1-.6.68,4.77.75,4.89,2.38-1.47,2.42-1.4" style="fill:none;stroke:#ff1d25;stroke-linecap:round;stroke-linejoin:round;stroke-width:3px;opacity:0.17966464399236204"/><path d="M86,14.9c-.87.5-1.09.52-1.58.4A1.51,1.51,0,0,1,84,12.54l.26-.11,1.38-.83c2.12-1.3,2.29-1.4,3-1.23A1.51,1.51,0,0,1,89,13.13a1.78,1.78,0,0,1-.29.12l-1.5.9Zm1-2.32a1.49,1.49,0,0,0,.65.6A1.45,1.45,0,0,1,86.93,12.58Zm-.9.51h0Zm-.68-.61a1.43,1.43,0,0,1,.68.61A1.41,1.41,0,0,0,85.35,12.48ZM86.88,15c-.81.47-1.06.51-1.56.39a1.56,1.56,0,0,1-.94-.71C84,14,84,14,85.64,9.87c-1.34.8-1.52.81-2.06.67a1.56,1.56,0,0,1-.94-.71,1.51,1.51,0,0,1,.55-2l.29-.13c.33-.17,1.24-.73,1.92-1.14C88.17,4.82,88.27,4.75,89,4.93a1.51,1.51,0,0,1,.93.71c.41.7.41.7-1.24,4.75a2.88,2.88,0,0,0-.13.31,1.56,1.56,0,0,1,1.48.76,1.49,1.49,0,0,1-.55,2,1.23,1.23,0,0,1-.26.12c-.24.13-.81.48-1.21.73S87.17,14.87,86.88,15Zm.67-1.88a1.48,1.48,0,0,0,.6.44,1.44,1.44,0,0,1-.6-.44ZM85.24,8.33h0Zm-.6-.58a1.59,1.59,0,0,1,.6.58A1.51,1.51,0,0,0,84.64,7.75Z" style="fill:url(#g)"/><path d="M89.09,6.66s.79-.5.81-.47" style="fill:none;stroke:#ff1d25;stroke-linecap:round;stroke-linejoin:round;stroke-width:3px;opacity:0.17966464399236204"/><path d="M82.18,13.22s.9-.56.92-.53" style="fill:none;stroke:#ff1d25;stroke-linecap:round;stroke-linejoin:round;stroke-width:3px;opacity:0.17966464399236204"/><path d="M83.84,8.16c.07.1,4.4-2.7,4.46-2.58s-3,7.38-2.92,7.57c0,0,.8-.48.81-.46" style="fill:none;stroke:#ff1d25;stroke-linecap:round;stroke-linejoin:round;stroke-width:3px;opacity:0.17966464399236204"/><path d="M88,12.68s.2-.14.21-.13" style="fill:none;stroke:#ff1d25;stroke-linecap:round;stroke-linejoin:round;stroke-width:3px;opacity:0.17966464399236204"/><path d="M85.36,10s.93-.58,1-.55" style="fill:none;stroke:#ff1d25;stroke-linecap:round;stroke-linejoin:round;stroke-width:3px;opacity:0.17966464399236204"/><path d="M84.16,9c.06.11,4.44-2.72,4.51-2.6s-3,7.33-2.84,7.52,2.2-1.35,2.24-1.29" style="fill:none;stroke:#ff1d25;stroke-linecap:round;stroke-linejoin:round;stroke-width:3px;opacity:0.17966464399236204"/><path d="M90.76,7.73l.16-.1" style="fill:none;stroke:#ff1d25;stroke-linecap:round;stroke-linejoin:round;stroke-width:3px;opacity:0.17966464399236204"/><path d="M82,12.42s.85-.53.86-.5,3.37,3.84,3.44,3.95S92,12.5,92,12.58" style="fill:none;stroke:#ff1d25;stroke-linecap:round;stroke-linejoin:round;stroke-width:3px;opacity:0.17966464399236204"/><path d="M83.58,7.78c.07.11,4.65-2.85,4.72-2.72s-3,7.37-2.9,7.56c0,0,.67-.41.67-.39" style="fill:none;stroke:#ff1d25;stroke-linecap:round;stroke-linejoin:round;stroke-width:3px;opacity:0.17966464399236204"/><path d="M88.36,7.74s.26-.17.27-.16-.1,5.13,0,5.24,2.94-1.81,3-1.72" style="fill:none;stroke:#ff1d25;stroke-linecap:round;stroke-linejoin:round;stroke-width:3px;opacity:0.17966464399236204"/><path d="M82.23,15.24s.66-.41.67-.39" style="fill:none;stroke:#ff1d25;stroke-linecap:round;stroke-linejoin:round;stroke-width:3px;opacity:0.17966464399236204"/><path d="M83.54,10.28s1.37-.84,1.39-.81.52,5.41.6,5.54.43-.26.43-.25" style="fill:none;stroke:#ff1d25;stroke-linecap:round;stroke-linejoin:round;stroke-width:3px;opacity:0.17966464399236204"/><path d="M88.44,11.62c0,.09,3.78-2.33,3.84-2.22" style="fill:none;stroke:#ff1d25;stroke-linecap:round;stroke-linejoin:round;stroke-width:3px;opacity:0.17966464399236204"/><path d="M82.19,13.81c.07.12,5.2-3.2,5.28-3.05" style="fill:none;stroke:#ff1d25;stroke-linecap:round;stroke-linejoin:round;stroke-width:3px;opacity:0.17966464399236204"/><path d="M83.73,9.48c.07.11,4.74-2.91,4.81-2.78s-3,7.36-2.89,7.55c0,0,1-.6,1-.58" style="fill:none;stroke:#ff1d25;stroke-linecap:round;stroke-linejoin:round;stroke-width:3px;opacity:0.17966464399236204"/><path d="M88.72,7.17s1.07-.66,1.09-.63" style="fill:none;stroke:#ff1d25;stroke-linecap:round;stroke-linejoin:round;stroke-width:3px;opacity:0.17966464399236204"/><path d="M82,13.7s1-.62,1-.59" style="fill:none;stroke:#ff1d25;stroke-linecap:round;stroke-linejoin:round;stroke-width:3px;opacity:0.17966464399236204"/><path d="M83.72,8.75c.06.11,4.58-2.81,4.65-2.68s-3.09,7.41-3,7.6,1.21-.74,1.23-.71" style="fill:none;stroke:#ff1d25;stroke-linecap:round;stroke-linejoin:round;stroke-width:3px;opacity:0.17966464399236204"/><path d="M90,9s.38-.24.39-.23" style="fill:none;stroke:#ff1d25;stroke-linecap:round;stroke-linejoin:round;stroke-width:3px;opacity:0.17966464399236204"/><path d="M82.61,15s.84-.52.85-.5" style="fill:none;stroke:#ff1d25;stroke-linecap:round;stroke-linejoin:round;stroke-width:3px;opacity:0.17966464399236204"/><path d="M83.93,10.13c.07.12,4.77-2.93,4.85-2.8s-3,7.37-2.91,7.56c0,0,.44-.26.44-.25" style="fill:none;stroke:#ff1d25;stroke-linecap:round;stroke-linejoin:round;stroke-width:3px;opacity:0.17966464399236204"/><path d="M87.12,7.9c0,.06,2.54-1.55,2.58-1.49" style="fill:none;stroke:#ff1d25;stroke-linecap:round;stroke-linejoin:round;stroke-width:3px;opacity:0.17966464399236204"/><path d="M87.55,8.91c0,.05,2.48-1.52,2.51-1.46" style="fill:none;stroke:#ff1d25;stroke-linecap:round;stroke-linejoin:round;stroke-width:3px;opacity:0.17966464399236204"/><path d="M87,7.09c0,.06,2.7-1.65,2.74-1.58" style="fill:none;stroke:#ff1d25;stroke-linecap:round;stroke-linejoin:round;stroke-width:3px;opacity:0.17966464399236204"/><path d="M87,10c0,.06,2.62-1.6,2.66-1.53" style="fill:none;stroke:#ff1d25;stroke-linecap:round;stroke-linejoin:round;stroke-width:3px;opacity:0.17966464399236204"/><path d="M87.12,9.26c0,.06,2.43-1.49,2.47-1.43" style="fill:none;stroke:#ff1d25;stroke-linecap:round;stroke-linejoin:round;stroke-width:3px;opacity:0.17966464399236204"/><path d="M87,8.4c0,.06,2.43-1.48,2.47-1.42" style="fill:none;stroke:#ff1d25;stroke-linecap:round;stroke-linejoin:round;stroke-width:3px;opacity:0.17966464399236204"/><path d="M87.53,9.87c0,.05,2.4-1.47,2.44-1.41" style="fill:none;stroke:#ff1d25;stroke-linecap:round;stroke-linejoin:round;stroke-width:3px;opacity:0.17966464399236204"/><path d="M109.57,14.42a1.48,1.48,0,0,1-.95.19,1.52,1.52,0,0,1-1.14-.75c-.29-.5-.3-.52.17-3.56-1.05.62-1.26.66-1.8.52a1.5,1.5,0,0,1-.38-2.75,1.42,1.42,0,0,1,.25-.12L107,7.16c2-1.25,2.2-1.35,2.89-1.18a1.51,1.51,0,0,1,.93.71c.3.51.3.51-.21,3.81-.07.47-.16,1-.23,1.52l.07.1a1.52,1.52,0,0,1-.64,2.1A1.55,1.55,0,0,1,109.57,14.42Zm-2-5.8h0Zm-.7-.63a1.55,1.55,0,0,1,.7.62A1.53,1.53,0,0,0,106.82,8Zm-7.31,9.69c-1.51.87-1.65.84-2.15.71a1.49,1.49,0,0,1-.92-.71c-.36-.61-.36-.61.69-4.6l.06-.2c-1.08.63-1.26.65-1.79.52a1.51,1.51,0,0,1-.93-.71,1.49,1.49,0,0,1,.55-2,1.23,1.23,0,0,1,.26-.12c.27-.15,1-.59,1.48-.89,2.26-1.38,2.4-1.47,3.08-1.29a1.51,1.51,0,0,1,.94.71c.36.62.36.62-.75,4.8v0l.36-.21c3.64-2.18,3.64-2.18,4.32-2a1.51,1.51,0,0,1,.93.71,1.49,1.49,0,0,1-.55,2,1.51,1.51,0,0,1-.26.12c-.41.22-1.84,1.08-2.9,1.71Zm-2.44-6.49h0Zm-.67-.61a1.46,1.46,0,0,1,.67.61A1.44,1.44,0,0,0,96.4,10.58Zm-.8,4.58c-1.07.62-1.28.61-1.78.49a1.56,1.56,0,0,1-.94-.71c-.41-.72-.43-.75,1.35-4.92a1.24,1.24,0,0,1-1.06.11,1.5,1.5,0,0,1-.38-2.75,1.23,1.23,0,0,1,.26-.12c.28-.15,1-.6,1.51-.9C96.84,5,97,4.88,97.67,5.05a1.51,1.51,0,0,1,.93.71c.41.72.41.72-1.34,4.82l0,.08c1.72-1,1.9-1.07,2.5-.92a1.56,1.56,0,0,1,.94.71,1.51,1.51,0,0,1-.55,2.05,1.43,1.43,0,0,1-.34.14c-.38.2-1.45.87-2.19,1.32S96.07,14.89,95.6,15.16ZM98.06,12a1.43,1.43,0,0,0,.56.56A1.5,1.5,0,0,1,98.06,12Zm-3.22-4h0Zm-.66-.61a1.58,1.58,0,0,1,.66.6A1.51,1.51,0,0,0,94.18,7.32Z" style="fill:url(#h)"/><path d="M107.28,7.38s.59-.37.6-.35S109,12.24,109,12.34l.19-.11" style="fill:none;stroke:#ff1d25;stroke-linecap:round;stroke-linejoin:round;stroke-width:3px;opacity:0.17966464399236204"/><path d="M106.28,9.57s0-.06.07,0c.1.19-2.8,7.13-2.71,7.28s.49-.3.5-.29" style="fill:none;stroke:#ff1d25;stroke-linecap:round;stroke-linejoin:round;stroke-width:3px;opacity:0.17966464399236204"/><path d="M96.77,6.91s.69-.43.7-.41,6.62,1.46,6.7,1.6.89-.62.94-.54-4.39,7.69-4.29,7.86c0,0,3.05-1.77,3.06-1.76" style="fill:none;stroke:#ff1d25;stroke-linecap:round;stroke-linejoin:round;stroke-width:3px;opacity:0.17966464399236204"/><path d="M100,9.81s.82-.51.84-.48-1.62,6-1.54,6.11.45-.28.46-.27" style="fill:none;stroke:#ff1d25;stroke-linecap:round;stroke-linejoin:round;stroke-width:3px;opacity:0.17966464399236204"/><path d="M94.15,11.49s1.94-1.2,2-1.14" style="fill:none;stroke:#ff1d25;stroke-linecap:round;stroke-linejoin:round;stroke-width:3px;opacity:0.17966464399236204"/><path d="M93.71,7.39c0,.06,2.81-1.72,2.85-1.65s-3,7.39-2.93,7.58,2-1.21,2-1.16" style="fill:none;stroke:#ff1d25;stroke-linecap:round;stroke-linejoin:round;stroke-width:3px;opacity:0.17966464399236204"/><path d="M107.88,7.94s.39-.24.4-.23.86,5.33.91,5.43.42-.26.43-.25" style="fill:none;stroke:#ff1d25;stroke-linecap:round;stroke-linejoin:round;stroke-width:3px;opacity:0.17966464399236204"/><path d="M106.46,10.15s.22-.16.24-.13c.11.19-3.14,7.32-3,7.47s.34-.2.34-.2" style="fill:none;stroke:#ff1d25;stroke-linecap:round;stroke-linejoin:round;stroke-width:3px;opacity:0.17966464399236204"/><path d="M93.52,9.47s.3-.21.32-.18c.1.19,10.35-.79,10.47-.58s1.07-.72,1.11-.64-4.42,7.83-4.32,8c0,0,3.24-1.89,3.25-1.88" style="fill:none;stroke:#ff1d25;stroke-linecap:round;stroke-linejoin:round;stroke-width:3px;opacity:0.17966464399236204"/><path d="M100.47,10.2s.54-.34.55-.32-1.83,6.1-1.75,6.24l.33-.19" style="fill:none;stroke:#ff1d25;stroke-linecap:round;stroke-linejoin:round;stroke-width:3px;opacity:0.17966464399236204"/><path d="M94.52,12.39s1.93-1.19,2-1.13" style="fill:none;stroke:#ff1d25;stroke-linecap:round;stroke-linejoin:round;stroke-width:3px;opacity:0.17966464399236204"/><path d="M94,8.26c0,.07,3.09-1.9,3.14-1.81s-3.22,7.48-3.1,7.67,1.56-1,1.58-.91" style="fill:none;stroke:#ff1d25;stroke-linecap:round;stroke-linejoin:round;stroke-width:3px;opacity:0.17966464399236204"/><path d="M107,7.34s1.1-.68,1.12-.64.65,5.44.71,5.54l.23-.13" style="fill:none;stroke:#ff1d25;stroke-linecap:round;stroke-linejoin:round;stroke-width:3px;opacity:0.17966464399236204"/><path d="M106.3,9.45s.11-.1.12-.07-2.26,6.83-2.18,7,.53-.32.53-.31" style="fill:none;stroke:#ff1d25;stroke-linecap:round;stroke-linejoin:round;stroke-width:3px;opacity:0.17966464399236204"/><path d="M97.9,8.75s.27-.18.28-.16,4.92,2.48,5,2.59.85-.52.86-.5" style="fill:none;stroke:#ff1d25;stroke-linecap:round;stroke-linejoin:round;stroke-width:3px;opacity:0.17966464399236204"/><path d="M100.17,9.65s.69-.44.71-.41-1.11,5.69-1,5.82.56-.35.57-.33" style="fill:none;stroke:#ff1d25;stroke-linecap:round;stroke-linejoin:round;stroke-width:3px;opacity:0.17966464399236204"/><path d="M93.71,8.37s.43-.27.43-.26,1.41,5.16,1.48,5.28,2.84-1.66,2.85-1.64" style="fill:none;stroke:#ff1d25;stroke-linecap:round;stroke-linejoin:round;stroke-width:3px;opacity:0.17966464399236204"/><path d="M93.74,6.46s2.15-1.31,2.18-1.25-2.61,7.15-2.51,7.33,2.21-1.36,2.25-1.3" style="fill:none;stroke:#ff1d25;stroke-linecap:round;stroke-linejoin:round;stroke-width:3px;opacity:0.17966464399236204"/><path d="M107.61,9s.45-.28.46-.27.67,5.44.72,5.54.76-.47.78-.45" style="fill:none;stroke:#ff1d25;stroke-linecap:round;stroke-linejoin:round;stroke-width:3px;opacity:0.17966464399236204"/><path d="M105.31,11.35s.45-.28.46-.27c.11.19-2.9,7.19-2.82,7.34s.73-.44.74-.42" style="fill:none;stroke:#ff1d25;stroke-linecap:round;stroke-linejoin:round;stroke-width:3px;opacity:0.17966464399236204"/><path d="M96.25,8.56s.45-.28.46-.27,7,1.25,7.06,1.39S104.94,8.9,105,9s-4.52,7.93-4.42,8.11,3.71-2.18,3.73-2.15" style="fill:none;stroke:#ff1d25;stroke-linecap:round;stroke-linejoin:round;stroke-width:3px;opacity:0.17966464399236204"/><path d="M100.36,10.81s.27-.17.28-.16-2,6.22-2,6.36.92-.57.94-.54" style="fill:none;stroke:#ff1d25;stroke-linecap:round;stroke-linejoin:round;stroke-width:3px;opacity:0.17966464399236204"/><path d="M94.24,13.4s1.89-1.16,1.92-1.11" style="fill:none;stroke:#ff1d25;stroke-linecap:round;stroke-linejoin:round;stroke-width:3px;opacity:0.17966464399236204"/><path d="M93.93,9.05s.61-.37.62-.36-1,6.23-.86,6.38,1.28-.79,1.3-.75" style="fill:none;stroke:#ff1d25;stroke-linecap:round;stroke-linejoin:round;stroke-width:3px;opacity:0.17966464399236204"/><path d="M107.55,8.24s.31-.19.32-.18.95,5.27,1,5.37.57-.35.58-.34" style="fill:none;stroke:#ff1d25;stroke-linecap:round;stroke-linejoin:round;stroke-width:3px;opacity:0.17966464399236204"/><path d="M105.2,12s.6-.36.6-.35c.1.16-1.43,6.38-1.36,6.5s.76-.45.76-.44" style="fill:none;stroke:#ff1d25;stroke-linecap:round;stroke-linejoin:round;stroke-width:3px;opacity:0.17966464399236204"/><path d="M93.13,9.74s.27-.18.28-.16c.11.19,10.42-.83,10.54-.62s.82-.57.86-.5-4.1,7.71-4,7.88,3.37-2,3.38-1.95" style="fill:none;stroke:#ff1d25;stroke-linecap:round;stroke-linejoin:round;stroke-width:3px;opacity:0.17966464399236204"/><path d="M100.52,11.24s.2-.14.21-.13-.55,5.39-.48,5.5.37-.23.38-.22" style="fill:none;stroke:#ff1d25;stroke-linecap:round;stroke-linejoin:round;stroke-width:3px;opacity:0.17966464399236204"/><path d="M94.23,12.77c0,.05,1.91-1.18,2-1.13" style="fill:none;stroke:#ff1d25;stroke-linecap:round;stroke-linejoin:round;stroke-width:3px;opacity:0.17966464399236204"/><path d="M93.83,8.56s.66-.4.66-.38-.74,6.11-.65,6.26,1.4-.86,1.42-.82" style="fill:none;stroke:#ff1d25;stroke-linecap:round;stroke-linejoin:round;stroke-width:3px;opacity:0.17966464399236204"/><path d="M107.09,7.76s.61-.38.62-.36,1.09,5.2,1.15,5.29l.31-.18" style="fill:none;stroke:#ff1d25;stroke-linecap:round;stroke-linejoin:round;stroke-width:3px;opacity:0.17966464399236204"/><path d="M106,9.93s.15-.12.17-.1c.11.19-2.92,7.2-2.83,7.35s.56-.34.56-.33" style="fill:none;stroke:#ff1d25;stroke-linecap:round;stroke-linejoin:round;stroke-width:3px;opacity:0.17966464399236204"/><path d="M96.59,7.2s.55-.34.56-.33,6.7,1.42,6.78,1.56.92-.63,1-.56-4.29,7.61-4.19,7.79c0,0,3.19-1.86,3.2-1.85" style="fill:none;stroke:#ff1d25;stroke-linecap:round;stroke-linejoin:round;stroke-width:3px;opacity:0.17966464399236204"/><path d="M99.9,10s.68-.42.69-.4-1.61,6-1.54,6.11.39-.24.4-.22" style="fill:none;stroke:#ff1d25;stroke-linecap:round;stroke-linejoin:round;stroke-width:3px;opacity:0.17966464399236204"/><path d="M94.09,11.92c0,.05,1.76-1.08,1.79-1" style="fill:none;stroke:#ff1d25;stroke-linecap:round;stroke-linejoin:round;stroke-width:3px;opacity:0.17966464399236204"/><path d="M93.54,7.94c0,.07,2.87-1.76,2.91-1.68s-3.07,7.4-3,7.59,1.85-1.13,1.87-1.08" style="fill:none;stroke:#ff1d25;stroke-linecap:round;stroke-linejoin:round;stroke-width:3px;opacity:0.17966464399236204"/><path d="M108.1,9s.38-.24.39-.23.65,5.45.71,5.55.76-.47.78-.45" style="fill:none;stroke:#ff1d25;stroke-linecap:round;stroke-linejoin:round;stroke-width:3px;opacity:0.17966464399236204"/><path d="M105.46,11.52s.72-.44.73-.42c.11.18-2.82,7.14-2.74,7.29s.93-.56.94-.54" style="fill:none;stroke:#ff1d25;stroke-linecap:round;stroke-linejoin:round;stroke-width:3px;opacity:0.17966464399236204"/><path d="M92.65,10.47s.36-.24.37-.21c.12.2,10.86-1.1,11-.88s.85-.59.89-.51-4,7.66-3.93,7.84c0,0,3.59-2.1,3.6-2.08" style="fill:none;stroke:#ff1d25;stroke-linecap:round;stroke-linejoin:round;stroke-width:3px;opacity:0.17966464399236204"/><path d="M100.92,11.48s.14-.09.14-.08-1,5.63-.92,5.75.62-.38.63-.36" style="fill:none;stroke:#ff1d25;stroke-linecap:round;stroke-linejoin:round;stroke-width:3px;opacity:0.17966464399236204"/><path d="M94.55,13.44c0,.05,1.87-1.14,1.9-1.09" style="fill:none;stroke:#ff1d25;stroke-linecap:round;stroke-linejoin:round;stroke-width:3px;opacity:0.17966464399236204"/><path d="M94.22,9.09l.58-.34c.07.12-1,6.24-.86,6.39s1.19-.73,1.21-.7" style="fill:none;stroke:#ff1d25;stroke-linecap:round;stroke-linejoin:round;stroke-width:3px;opacity:0.17966464399236204"/><path d="M114.23,12.4c-.75.43-1,.48-1.5.35a1.5,1.5,0,0,1-.38-2.75,1,1,0,0,1,.23-.11l1-.61c1.61-1,1.86-1.13,2.53-1a1.51,1.51,0,0,1,.38,2.76,1.15,1.15,0,0,1-.25.12c-.23.12-.66.39-1.09.65Zm.17-1.85h0Zm.85,4.61c-.85.49-1.09.53-1.59.4a1.51,1.51,0,0,1-.93-.71c-.42-.71-.44-.75,1.33-4.88-1.46.87-1.6.87-2.16.72a1.49,1.49,0,0,1-.39-2.75,1.3,1.3,0,0,1,.3-.13c.34-.18,1.29-.77,2-1.2,2.87-1.75,3-1.82,3.69-1.64a1.51,1.51,0,0,1,.93.71c.42.72.42.72-1.33,4.81a2.14,2.14,0,0,1-.1.22,1.29,1.29,0,0,1,.7,0,1.5,1.5,0,0,1,.38,2.75,1.23,1.23,0,0,1-.26.12l-1.33.8Zm.8-2.19a1.51,1.51,0,0,0,.69.6,1.54,1.54,0,0,1-.69-.6Zm-2.49-4.48h0ZM113,7.91a1.43,1.43,0,0,1,.59.58A1.43,1.43,0,0,0,113,7.91Z" style="fill:url(#i)"/><path d="M109.58,11c.06.11,4.64-2.84,4.71-2.72s.28,5.79.36,5.92,7.5-4.49,7.57-4.37" style="fill:none;stroke:#ff1d25;stroke-linecap:round;stroke-linejoin:round;stroke-width:3px;opacity:0.17966464399236204"/><path d="M112,8.6c.08.12,5.23-3.21,5.31-3.07s-3.54,7.66-3.42,7.86c0,0,1.66-1,1.69-1" style="fill:none;stroke:#ff1d25;stroke-linecap:round;stroke-linejoin:round;stroke-width:3px;opacity:0.17966464399236204"/><path d="M113.07,9.16l.36-.21c.09.15,5.69,2.65,5.78,2.8s3.21-1.89,3.22-1.86" style="fill:none;stroke:#ff1d25;stroke-linecap:round;stroke-linejoin:round;stroke-width:3px;opacity:0.17966464399236204"/><path d="M112.39,9.41s.77-.47.78-.46,1,5.12,1.12,5.24,1.1-.68,1.12-.65" style="fill:none;stroke:#ff1d25;stroke-linecap:round;stroke-linejoin:round;stroke-width:3px;opacity:0.17966464399236204"/><path d="M114.7,8.4s.56-.35.57-.33,4.58,3.31,4.66,3.44l2.43-1.41" style="fill:none;stroke:#ff1d25;stroke-linecap:round;stroke-linejoin:round;stroke-width:3px;opacity:0.17966464399236204"/><path d="M111.7,8.19c.08.13,5.44-3.34,5.52-3.19s-3.55,7.67-3.44,7.87c0,0,.46-.28.46-.27" style="fill:none;stroke:#ff1d25;stroke-linecap:round;stroke-linejoin:round;stroke-width:3px;opacity:0.17966464399236204"/><path d="M107.26,15.29l.08,0c.09.15,5.55,2.74,5.63,2.88s2.71-1.58,2.72-1.57" style="fill:none;stroke:#ff1d25;stroke-linecap:round;stroke-linejoin:round;stroke-width:3px;opacity:0.17966464399236204"/><path d="M112.5,10.09c.06.11,4.59-2.82,4.66-2.69s5.06,2.78,5.14,2.92.72-.45.74-.43" style="fill:none;stroke:#ff1d25;stroke-linecap:round;stroke-linejoin:round;stroke-width:3px;opacity:0.17966464399236204"/><path d="M115.26,10.27s.52-.33.53-.31" style="fill:none;stroke:#ff1d25;stroke-linecap:round;stroke-linejoin:round;stroke-width:3px;opacity:0.17966464399236204"/><path d="M112.3,9.58c.07.12,4.92-3,5-2.88s-3.38,7.58-3.27,7.78,9-5.52,9.12-5.27" style="fill:none;stroke:#ff1d25;stroke-linecap:round;stroke-linejoin:round;stroke-width:3px;opacity:0.17966464399236204"/><path d="M108.27,12.14c.08.14,5.81-3.57,5.9-3.41" style="fill:none;stroke:#ff1d25;stroke-linecap:round;stroke-linejoin:round;stroke-width:3px;opacity:0.17966464399236204"/><path d="M111.93,9c.07.12,5.16-3.17,5.24-3s-3.49,7.63-3.37,7.83,9-5.51,9.11-5.26" style="fill:none;stroke:#ff1d25;stroke-linecap:round;stroke-linejoin:round;stroke-width:3px;opacity:0.17966464399236204"/><path d="M107.63,15.12s.5-.32.51-.3,5,3,5.13,3.17,9.39-5.64,9.48-5.48" style="fill:none;stroke:#ff1d25;stroke-linecap:round;stroke-linejoin:round;stroke-width:3px;opacity:0.17966464399236204"/><path d="M112.65,10.15c.07.12,4.83-3,4.91-2.83s4.86,2.36,4.93,2.49.82-.5.83-.48" style="fill:none;stroke:#ff1d25;stroke-linecap:round;stroke-linejoin:round;stroke-width:3px;opacity:0.17966464399236204"/><path d="M112.9,11.71s.68-.42.69-.4" style="fill:none;stroke:#ff1d25;stroke-linecap:round;stroke-linejoin:round;stroke-width:3px;opacity:0.17966464399236204"/><path d="M114.8,8.16s1.61-1,1.63-1,.74,5,.81,5.12,2-1.22,2-1.17" style="fill:none;stroke:#ff1d25;stroke-linecap:round;stroke-linejoin:round;stroke-width:3px;opacity:0.17966464399236204"/><path d="M112.78,12.24s.94-.58,1-.55" style="fill:none;stroke:#ff1d25;stroke-linecap:round;stroke-linejoin:round;stroke-width:3px;opacity:0.17966464399236204"/><path d="M115.2,9.19s1.94-1.19,2-1.14.24,5.09.31,5.21,2-1.23,2-1.18" style="fill:none;stroke:#ff1d25;stroke-linecap:round;stroke-linejoin:round;stroke-width:3px;opacity:0.17966464399236204"/><path d="M112.93,11.53s.76-.47.77-.45" style="fill:none;stroke:#ff1d25;stroke-linecap:round;stroke-linejoin:round;stroke-width:3px;opacity:0.17966464399236204"/><path d="M114.65,7.36s1.54-.93,1.56-.89.93,5.17,1,5.3,1.88-1.15,1.91-1.1" style="fill:none;stroke:#ff1d25;stroke-linecap:round;stroke-linejoin:round;stroke-width:3px;opacity:0.17966464399236204"/><path d="M112.26,12.51s.55-.34.56-.32" style="fill:none;stroke:#ff1d25;stroke-linecap:round;stroke-linejoin:round;stroke-width:3px;opacity:0.17966464399236204"/><path d="M114.76,10.25s1.41-.86,1.43-.82.73,5,.8,5.14,2.07-1.28,2.11-1.22" style="fill:none;stroke:#ff1d25;stroke-linecap:round;stroke-linejoin:round;stroke-width:3px;opacity:0.17966464399236204"/><path d="M112.56,12.32s.73-.44.74-.42" style="fill:none;stroke:#ff1d25;stroke-linecap:round;stroke-linejoin:round;stroke-width:3px;opacity:0.17966464399236204"/><path d="M114.86,9.52c0,.05,2-1.2,2-1.15s.29,5.11.36,5.24,2-1.23,2-1.17" style="fill:none;stroke:#ff1d25;stroke-linecap:round;stroke-linejoin:round;stroke-width:3px;opacity:0.17966464399236204"/><path d="M112.78,12s.58-.36.6-.34" style="fill:none;stroke:#ff1d25;stroke-linecap:round;stroke-linejoin:round;stroke-width:3px;opacity:0.17966464399236204"/><path d="M114.62,8.67s1.69-1,1.71-1,.73,5,.8,5.16,1-.63,1.05-.61" style="fill:none;stroke:#ff1d25;stroke-linecap:round;stroke-linejoin:round;stroke-width:3px;opacity:0.17966464399236204"/><path d="M112.62,12.34s.56-.34.57-.33" style="fill:none;stroke:#ff1d25;stroke-linecap:round;stroke-linejoin:round;stroke-width:3px;opacity:0.17966464399236204"/><path d="M115.13,10s1.19-.73,1.21-.7,1,5,1.11,5.12,2-1.26,2.08-1.2" style="fill:none;stroke:#ff1d25;stroke-linecap:round;stroke-linejoin:round;stroke-width:3px;opacity:0.17966464399236204"/><path d="M14.32,10.27c-.11,3.81-4.07,4.17-5.08,4.17C7.15,14.44,4,13.58,4,11a2.06,2.06,0,0,1,2-2.17,1.93,1.93,0,0,1,2.09,1.79c0,.3-.13.61-.13.84a.67.67,0,0,0,.79.67c2.13-.22,1.12-3.89,1.26-7.13.09-2-1.62-.94-1.62-2.14,0-.34.15-1.5,3.66-1.5s3.8.83,3.8,1.34c0,.93-1.41.5-1.44,2Z" style="stroke:#000;stroke-miterlimit:10;stroke-width:0.25px;fill:url(#j)"/><path d="M21.45,10.3c0,.72.05,1.84,1,1.84,1.3,0,1.12-1.69,1.12-2.56a13.87,13.87,0,0,0-.07-1.94c-.15-.9-1-.6-1-1.35,0-1.06,3.62-1.24,4.31-1.24s.91.37.91,1,0,1.14,0,1.71v3.62c0,1.08,1,.58,1,1.44,0,1.23-3.19,1.57-4.18,1.57-1.39,0-.47-1.08-1.19-1.08-.2,0-.48.27-.92.54a3.26,3.26,0,0,1-1.8.54c-3.42,0-3.13-2.7-3.13-5.4s-1.24-1.55-1.24-2.74,4.54-1.2,4.68-1.2c.5,0,.56.23.56.68Z" style="stroke:#000;stroke-miterlimit:10;stroke-width:0.25px;fill:url(#k)"/><path d="M34.05,5.1c.32.05.61.13.74.13a1.15,1.15,0,0,0,.48-.13A1.73,1.73,0,0,1,35.76,5c.83,0,1.65,1.66,1.65,2.4a.86.86,0,0,1-.88.84c-1,0-1.6-1.42-2.39-1.42a.65.65,0,0,0-.65.61c0,1.15,4,1.37,4,4.16,0,1.69-1.64,2.86-3.51,2.86a9.63,9.63,0,0,1-1.33-.12c-.45-.06-.85-.11-1-.11a2.33,2.33,0,0,0-.36,0,3.31,3.31,0,0,1-.34,0,.85.85,0,0,1-.79-.34,4,4,0,0,1-.9-2.21c0-.47.16-.85.68-.85.79,0,1.51,1.78,2.52,1.78.36,0,.71-.18.71-.57,0-1.07-3.53-1.19-3.53-4.16A3,3,0,0,1,33,5,5.49,5.49,0,0,1,34.05,5.1Z" style="stroke:#000;stroke-miterlimit:10;stroke-width:0.25px;fill:url(#l)"/><path d="M43.7,10.3c0,1.21.5,1.5,1,1.5s.88-.42,1.2-.42.61.51.61.83c0,1.19-2,2.23-3.87,2.23a3,3,0,0,1-3.22-3.25V7.48c0-.33,0-.45-.09-.51a2.46,2.46,0,0,0-.7,0c-.47,0-.7,0-.79-.07s-.09-.3-.09-.72c0-.25-.06-.45.16-.59L42,3c.42-.25.4-.2.94-.2.72,0,.76-.07.76.76a5.6,5.6,0,0,0,0,1.33c0,.14.18.14.65.14h1.26c.77,0,.77.06.77.87,0,1-.12,1.09-.83,1.09H44.36c-.63,0-.66,0-.66.67Z" style="stroke:#000;stroke-miterlimit:10;stroke-width:0.25px;fill:url(#m)"/><path d="M61.7,9.89c0,3.17,1.08,1.44,1.08,2.41s-1.41,2.14-2.72,2.14-1.46-.91-1.91-.91c-.22,0-.45.23-.85.45a3.29,3.29,0,0,1-1.76.46c-1.5,0-3-.79-3-2.57,0-1.28,1.22-2.86,4.39-2.86.56,0,.81,0,.81-.62s0-1.83-.84-1.83c-1.08,0-1.19,1.94-2.79,1.94a1,1,0,0,1-1-1C53.11,6,56.15,5,57.86,5c1,0,3.84.4,3.84,3.1Zm-5.4,1.58c0,.47.25,1,.77,1,.68,0,.74-.74.74-1.28s0-.85-.49-.85A1.1,1.1,0,0,0,56.3,11.47Z" style="stroke:#000;stroke-miterlimit:10;stroke-width:0.25px;fill:url(#n)"/><path d="M79.86,11.15c0,1.26,1,.85,1,1.78,0,1.37-3.94,1.46-4.14,1.46-.92,0-.27-1-.86-1-.16,0-.43.25-.85.52a3.25,3.25,0,0,1-1.76.52c-2.36,0-4.2-2.5-4.2-4.71A4.71,4.71,0,0,1,73.43,5a5.63,5.63,0,0,1,2.14.54c.27,0,.29-.59.29-.79,0-1.12-1.31-.52-1.31-1.49,0-1.34,4.59-1.68,4.64-1.68.54,0,.67.38.67,1Zm-5-4.2C73.63,7,73.41,9,73.41,9.87s.22,2.32,1.34,2.32,1.13-2.21,1.13-3S75.88,7,74.84,7Z" style="stroke:#000;stroke-miterlimit:10;stroke-width:0.25px;fill:url(#o)"/><path d="M85.74,10.05c-.19,0-.48-.05-.48.25,0,.9,1.17,1.66,2,1.66,1.35,0,2-.81,2.4-.81s.7.56.7.9c0,1.39-2.54,2.39-4.16,2.39A4.62,4.62,0,0,1,81.3,9.78,4.9,4.9,0,0,1,86.36,5,4.15,4.15,0,0,1,90.77,8.7c0,1.19-.54,1.35-1.12,1.35Zm1.57-2.27a1.05,1.05,0,0,0-1.06-1.15,1.19,1.19,0,0,0-1.08,1.19c0,.65.61.5,1.08.5S87.31,8.43,87.31,7.78Z" style="stroke:#000;stroke-miterlimit:10;stroke-width:0.25px;fill:url(#p)"/><path d="M92.28,9.17c0-1.15-.24-1.48-.42-1.64s-.48-.18-.48-.65c0-1.33,4.46-1.83,4.5-1.83.45,0,.48.39.48.77,0,.22-.07.83.31.83.18,0,.47-.4,1-.81a3.57,3.57,0,0,1,2.29-.79c2.14,0,2.16,1.6,2.54,1.6.14,0,.47-.4,1-.81a3.62,3.62,0,0,1,2.18-.79,2.49,2.49,0,0,1,2.77,2.7v3.8c0,1,.67,1.13.67,1.65,0,1.14-2.06,1.19-2.76,1.19s-2.68-.13-2.68-1.06c0-.67.63-.65.63-1.69V10c0-.76.09-2.27-.94-2.27s-.92,1.22-.92,1.89v1.11c0,2.22.65,1.84.65,2.51,0,1.11-2.16,1.13-2.81,1.13-2.72,0-2.86-.5-2.84-1,0-1,.92-.2.86-2.34V10c0-.65.09-2.27-.93-2.27S96.42,9,96.42,9.64V11.1c0,1.65.48,1.54.48,2.19,0,.47-.41,1.1-2.88,1.1-.7,0-2.82,0-2.82-.94,0-.81,1.08-.37,1.08-2.62Z" style="stroke:#000;stroke-miterlimit:10;stroke-width:0.25px;fill:url(#q)"/><path d="M109.59,10c0-3.22,2.83-5,5.8-5a4.79,4.79,0,0,1,5,4.7c0,3-3.17,4.75-5.81,4.75S109.59,12.88,109.59,10Zm5-2.91a1,1,0,0,0-.89,1.08c.08,1.13.4,3.9,1.64,4,.69,0,.83-.54.83-1.12C116.2,10.25,115.84,7.12,114.62,7.12Z" style="stroke:#000;stroke-miterlimit:10;stroke-width:0.25px;fill:url(#r)"/></svg>